<?xml version="1.0" standalone="no"?>
<!DOCTYPE svg PUBLIC "-//W3C//DTD SVG 20010904//EN"
 "http://www.w3.org/TR/2001/REC-SVG-20010904/DTD/svg10.dtd">
<svg version="1.0" xmlns="http://www.w3.org/2000/svg"
 width="639.000000pt" height="640.000000pt" viewBox="0 0 639.000000 640.000000"
 preserveAspectRatio="xMidYMid meet">
<rect width="100%" height="100%" fill="rgb(12, 69, 125)" />
<g transform="translate(0.000000,640.000000) scale(0.100000,-0.100000)"
fill="#000000" stroke="none">
<path d="M2825 6389 c-598 -62 -1016 -459 -1253 -1190 -102 -314 -157 -602
-222 -1177 -47 -409 -66 -468 -205 -608 -66 -67 -97 -89 -175 -127 -164 -80
-347 -121 -599 -134 l-126 -6 135 -66 c332 -162 557 -183 769 -71 53 28 67 33
47 16 -45 -38 -166 -94 -252 -118 -66 -18 -107 -22 -245 -22 l-166 -1 19 -70
c30 -111 91 -227 151 -288 94 -96 199 -135 385 -144 l123 -6 -6 -26 c-15 -64
-50 -116 -94 -140 -40 -22 -57 -25 -152 -25 l-108 0 22 -30 c44 -64 168 -177
252 -232 47 -30 133 -78 191 -106 58 -27 104 -51 102 -54 -2 -2 -155 -49 -339
-105 -346 -105 -412 -132 -519 -214 -111 -85 -230 -235 -305 -384 -39 -79
-107 -258 -149 -396 -21 -66 -53 -169 -73 -229 l-35 -108 78 -80 c93 -94 177
-159 256 -199 l57 -29 1115 0 c613 0 1121 3 1130 6 9 3 16 13 16 22 0 8 -79
445 -175 971 l-176 956 21 55 c39 107 51 184 57 350 l5 165 -195 197 -195 196
-15 69 c-56 247 -94 598 -128 1178 l-12 199 42 38 c57 50 136 78 220 79 103 1
159 -18 218 -74 18 -17 34 -29 36 -26 2 2 48 81 103 176 l99 171 6 -41 c4 -23
10 -127 14 -230 4 -104 11 -185 16 -180 4 4 188 276 409 603 220 327 405 597
410 598 17 6 204 -105 313 -185 124 -91 293 -261 363 -363 312 -456 354 -1017
143 -1910 l-30 -125 -94 -79 -93 -79 5 -71 c18 -255 38 -635 35 -654 -4 -20
-9 -23 -32 -19 l-27 6 -295 -987 c-189 -630 -293 -991 -286 -997 6 -7 455 -11
1296 -13 l1287 -3 70 36 c57 29 252 178 314 240 11 11 -1 49 -84 247 -202 482
-326 700 -494 868 -143 143 -165 152 -701 300 -245 67 -447 124 -449 125 -2 2
19 30 47 62 201 234 330 557 389 973 25 176 25 717 0 945 -73 667 -186 1136
-361 1500 -186 385 -401 636 -708 827 -316 196 -773 291 -1193 247z"/>
</g>
</svg>
