<?xml version="1.0" encoding="UTF-8"?>
<svg version="1.1" xmlns="http://www.w3.org/2000/svg" width="639" height="640">
<path d="M0 0 C1.52619461 0.00456207 1.52619461 0.00456207 3.08322144 0.00921631 C18.24090851 0.07627715 32.74288741 0.68830318 47.5 4.4375 C48.38751953 4.65180664 49.27503906 4.86611328 50.18945312 5.08691406 C88.29538154 14.44315882 121.27170881 35.53089778 145.5 66.4375 C146.12648438 67.22543945 146.12648438 67.22543945 146.765625 68.02929688 C191.48596542 124.67057141 203.3553777 204.40335014 208.5 274.4375 C208.55784668 275.18837891 208.61569336 275.93925781 208.67529297 276.71289062 C211.6854591 317.12236122 209.66267808 358.60807167 197.5 397.4375 C197.28150391 398.14100586 197.06300781 398.84451172 196.83789062 399.56933594 C191.46315791 416.37984611 183.03418589 433.12897148 171.75390625 446.71875 C170.0190936 448.81134896 168.42705895 450.89418176 166.85913086 453.10742188 C166.41540634 453.7325769 165.97168182 454.35773193 165.51451111 455.00183105 C165.01232811 455.71248718 165.01232811 455.71248718 164.5 456.4375 C165.36427109 456.67695847 166.22854218 456.91641693 167.1190033 457.16313171 C175.3404042 459.441244 183.56144273 461.72065864 191.78209591 464.0014677 C196.00647481 465.17346842 200.23098296 466.34499849 204.45581055 467.51538086 C208.54752645 468.64890792 212.63887139 469.78376535 216.72998238 470.91947365 C218.2760206 471.34842298 219.82218288 471.77692549 221.36848259 472.20493126 C226.41616891 473.60230446 231.45963909 475.01393958 236.5 476.4375 C237.63647917 476.7566506 237.63647917 476.7566506 238.79591751 477.08224869 C241.08537902 477.72763161 243.37216864 478.38177093 245.65844727 479.03833008 C246.34454795 479.23080417 247.03064863 479.42327826 247.73754025 479.62158489 C273.80879921 487.18594657 290.61125829 510.1078761 303.375 532.6875 C313.05682367 550.32534926 320.98180563 568.92345216 328.78970337 587.44854736 C329.46817122 589.05812454 330.14911697 590.66665963 330.83261108 592.27410889 C331.79002336 594.53168709 332.73481481 596.79411963 333.67578125 599.05859375 C333.96260773 599.73136856 334.2494342 600.40414337 334.54495239 601.0973053 C335.9994891 604.643216 337.0692731 607.5959734 336.5 611.4375 C334.63903729 613.42029333 332.93520901 614.97180265 330.8125 616.625 C330.22670166 617.09768311 329.64090332 617.57036621 329.03735352 618.05737305 C327.81018941 619.04241789 326.57723281 620.02028577 325.33886719 620.99121094 C323.59622264 622.36181985 321.8784657 623.758395 320.1640625 625.1640625 C311.90985296 631.83556248 302.02258374 639.53967316 290.99644089 639.5761652 C290.06790259 639.58163964 289.1393643 639.58711409 288.18268847 639.59275442 C287.16049881 639.59373253 286.13830915 639.59471064 285.08514404 639.59571838 C283.99997096 639.60065636 282.91479788 639.60559434 281.79674077 639.61068195 C278.1389095 639.62610828 274.48109588 639.63443304 270.82324219 639.64282227 C268.20583949 639.65240026 265.58843834 639.66241029 262.97103882 639.67282104 C256.5714942 639.69747836 250.17194371 639.71686729 243.77237651 639.73457379 C236.2625917 639.75557834 228.75282896 639.78203202 221.24306265 639.80874526 C207.76687097 639.85651811 194.29066852 639.89970502 180.81445312 639.94018555 C167.8788959 639.97904912 154.94335081 640.02045518 142.0078125 640.06518555 C140.82580919 640.06927196 140.82580919 640.06927196 139.61992702 640.07344092 C136.44772046 640.084414 133.27551391 640.09539305 130.10330741 640.10638306 C116.87269981 640.15214706 103.64208517 640.19582405 90.41146946 640.2391727 C87.44813038 640.24888315 84.48479155 640.25866158 81.5214529 640.26850247 C46.14790634 640.38581259 10.77495299 640.45379943 -24.59879851 640.44093293 C-38.83601496 640.43588332 -53.07313234 640.44605304 -67.31033182 640.46766865 C-89.52376912 640.50125163 -111.73697268 640.49665127 -133.95040894 640.46084595 C-146.57870677 640.44150241 -159.2066768 640.43789682 -171.83496094 640.46826172 C-183.04466739 640.49516753 -194.25396251 640.49398909 -205.46365356 640.45924091 C-211.34154825 640.4419643 -217.21870018 640.4380962 -223.09655762 640.46853638 C-228.58068957 640.49654487 -234.06349087 640.48679417 -239.5475502 640.44876289 C-241.54409646 640.44139983 -243.54074873 640.44742386 -245.53719711 640.46851921 C-262.25703596 640.63250317 -273.96426827 636.60887421 -286.375 625 C-286.98794922 624.4421582 -287.60089844 623.88431641 -288.23242188 623.30957031 C-289.44087418 622.20362634 -290.64335452 621.09111038 -291.83886719 619.97119141 C-293.34733626 618.57845145 -294.90949115 617.24442678 -296.4765625 615.91796875 C-297.30929687 615.18191406 -298.14203125 614.44585938 -299 613.6875 C-299.7115625 613.07390625 -300.423125 612.4603125 -301.15625 611.828125 C-303.75283826 607.20861333 -301.82086263 601.23875808 -300.44360352 596.32421875 C-300.01422749 594.9217371 -299.57563006 593.52205275 -299.12890625 592.125 C-298.89112961 591.36159805 -298.65335297 590.59819611 -298.40837097 589.81166077 C-297.63688588 587.35015201 -296.8512372 584.89353103 -296.0625 582.4375 C-295.79433472 581.59557098 -295.52616943 580.75364197 -295.24987793 579.88619995 C-283.22634049 542.22707582 -268.63528414 505.70316065 -232.35256577 485.37940598 C-226.83245607 482.57279883 -220.79143892 481.01518351 -214.86328125 479.31640625 C-213.40640898 478.88353464 -211.95005243 478.44892396 -210.4941864 478.01268005 C-206.71047843 476.88360796 -202.92064616 475.77677137 -199.12884521 474.67523193 C-195.24942102 473.5443508 -191.37582762 472.39386192 -187.50195312 471.24414062 C-183.15525217 469.95417903 -178.80820263 468.66582283 -174.45588684 467.39491272 C-173.79977417 467.20276184 -173.1436615 467.01061096 -172.46766663 466.81263733 C-170.69837669 466.29484484 -168.92853078 465.77895317 -167.15864563 465.26319885 C-164.55909277 464.53446571 -164.55909277 464.53446571 -162.5 463.4375 C-163.07331055 463.17646484 -163.64662109 462.91542969 -164.23730469 462.64648438 C-179.7403956 455.54478769 -193.10586134 448.36508353 -205.5 436.4375 C-206.31855469 435.65890625 -207.13710937 434.8803125 -207.98046875 434.078125 C-212.07501359 430.09713197 -215.41452555 426.2732548 -218.5 421.4375 C-217.60861328 421.41562622 -217.60861328 421.41562622 -216.69921875 421.39331055 C-213.96554366 421.31811322 -211.23299583 421.22169478 -208.5 421.125 C-207.56542969 421.10244141 -206.63085938 421.07988281 -205.66796875 421.05664062 C-198.80535637 420.79269399 -192.51620368 420.1276276 -187.1875 415.375 C-184.83279416 411.27606761 -183.66887644 406.99788912 -182.5 402.4375 C-183.07943359 402.60282227 -183.65886719 402.76814453 -184.25585938 402.93847656 C-197.16905091 405.80994779 -213.80399661 401.75105803 -224.90625 395.2109375 C-238.90418241 385.64006202 -245.6726642 370.44606803 -249.5 354.4375 C-249.5 353.1175 -249.5 351.7975 -249.5 350.4375 C-248.17162109 350.4689209 -248.17162109 350.4689209 -246.81640625 350.50097656 C-223.80708834 351.32786771 -223.80708834 351.32786771 -201.5 346.4375 C-203.70403936 346.40754045 -203.70403936 346.40754045 -206.703125 346.7265625 C-229.06273164 348.67696809 -249.14287545 341.9289339 -268.67822266 331.40478516 C-271.91942438 329.6838469 -275.21279879 328.06844362 -278.5 326.4375 C-278.5 325.7775 -278.5 325.1175 -278.5 324.4375 C-277.61985229 324.41562622 -277.61985229 324.41562622 -276.72192383 324.39331055 C-245.70145042 323.54108319 -211.2288775 320.6651096 -187.3515625 298.4375 C-175.94665255 286.08633115 -172.34821214 271.45582715 -170.5625 255.125 C-170.40099386 253.74438102 -170.23802543 252.36393246 -170.07373047 250.98364258 C-169.72308179 248.0261747 -169.37827751 245.06812012 -169.03857422 242.109375 C-152.06134761 94.46778918 -152.06134761 94.46778918 -104.44140625 43.53515625 C-102.35319134 41.33988584 -102.35319134 41.33988584 -100.125 38.375 C-96.05370762 33.81902996 -91.32199585 30.17044645 -86.5 26.4375 C-85.72785156 25.83808594 -84.95570313 25.23867188 -84.16015625 24.62109375 C-73.41570463 16.70509606 -61.55039532 10.83279817 -48.9375 6.5625 C-47.73613403 6.15161133 -47.73613403 6.15161133 -46.51049805 5.73242188 C-31.03068331 0.7630977 -16.12753789 -0.10191229 0 0 Z " fill="#010202" transform="translate(302.5,-0.4375)"/>
<path d="M0 0 C4.68347918 0.80639037 8.34544145 2.59112935 12.4375 4.9375 C13.13979736 5.33791504 13.84209473 5.73833008 14.56567383 6.15087891 C51.73896115 27.73590829 80.10912099 60.9469396 91.35717773 102.82299805 C100.03139417 137.81745444 97.00404613 174.85344002 91 210 C90.78649902 211.25748047 90.57299805 212.51496094 90.35302734 213.81054688 C82.7891368 257.30736686 82.7891368 257.30736686 73.6875 264.5 C72.74261719 265.2528125 71.79773438 266.005625 70.82421875 266.78125 C68 269 68 269 65.34887695 270.5559082 C62.32438537 273.70300156 62.44125431 275.42842676 62.48400879 279.65791321 C62.52022339 280.53779404 62.55643799 281.41767487 62.59375 282.32421875 C62.61352905 283.24909592 62.63330811 284.17397308 62.65368652 285.12687683 C62.93322652 295.70612141 63.6973673 306.2624588 64.5 316.8125 C64.71649403 319.72742011 64.93075641 322.64247734 65.14196777 325.55778503 C65.2720831 327.34670356 65.40538817 329.13539433 65.54260254 330.92378235 C66.59828502 345.20514493 66.59828502 345.20514493 65 350 C63.02 349.67 61.04 349.34 59 349 C58.86347015 349.59819046 58.72694031 350.19638092 58.58627319 350.81269836 C55.90356598 362.04608962 52.44566093 373.05567386 49.1015625 384.10546875 C48.42253763 386.35679832 47.74378063 388.60820869 47.0652771 390.85969543 C45.28431139 396.76719085 43.50007563 402.67369331 41.71502686 408.57995605 C39.20925519 416.87303741 36.70794289 425.16746504 34.20614624 433.46174622 C32.87724915 437.86744233 31.54713306 442.27276731 30.2159729 446.67778015 C27.10631673 456.97332497 24.01697939 467.27390942 20.99714661 477.59619141 C19.70485899 482.00747825 18.38790483 486.4110736 17.0625 490.8125 C16.81508057 491.63596924 16.56766113 492.45943848 16.31274414 493.30786133 C15.28572398 496.72596849 14.25756565 500.14373296 13.22949219 503.56152344 C11.96763666 507.75755382 10.70788095 511.95418445 9.453125 516.15234375 C8.49533856 519.35630629 7.52546778 522.55624163 6.546875 525.75390625 C6.09360134 527.25255921 5.64046955 528.75125509 5.1875 530.25 C4.87703735 531.25003052 4.87703735 531.25003052 4.56030273 532.27026367 C3.18380199 536.85879267 2.49042124 541.25398798 2 546 C4.31367561 547.15683781 5.63762172 547.1297849 8.21290779 547.1386652 C9.54605465 547.14687687 9.54605465 547.14687687 10.90613377 547.15525442 C12.37984655 547.15672158 12.37984655 547.15672158 13.8833313 547.15821838 C15.44172802 547.16562535 15.44172802 547.16562535 17.03160751 547.17318195 C20.53555566 547.18861964 24.03948541 547.1969345 27.54345703 547.20532227 C30.04618493 547.21489587 32.5489112 547.22490563 35.05163574 547.23532104 C40.45149313 547.25680673 45.85134741 547.27524009 51.25122452 547.29092598 C59.05859813 547.31361055 66.86594449 547.34175532 74.67329501 547.37124526 C87.33931356 547.41893852 100.00534324 547.462198 112.67138672 547.50268555 C124.97738512 547.54203166 137.28337361 547.58345575 149.58935547 547.62768555 C150.3475269 547.63040982 151.10569833 547.63313409 151.88684465 547.63594092 C155.6902576 547.64962025 159.49367041 547.66334055 163.29708314 547.67708123 C194.86470169 547.79107325 226.43234096 547.89780296 258 548 C258 548.33 258 548.66 258 549 C223.91160816 549.12878397 189.82321179 549.25628936 155.73480916 549.38218227 C151.6701299 549.39719471 147.60545068 549.41221726 143.54077148 549.42724609 C142.73188736 549.43023671 141.92300324 549.43322732 141.08960748 549.43630856 C128.15384703 549.48415867 115.21808975 549.53282022 102.28233355 549.58180541 C88.91511583 549.63240549 75.54789488 549.68207866 62.1806708 549.73096704 C54.7121342 549.75830656 47.24359946 549.78601995 39.77506828 549.81480408 C-17.42150272 550.03477915 -74.61557507 550.07889453 -131.81221843 549.79807091 C-137.80966746 549.76895723 -143.80712451 549.74158554 -149.80458069 549.71398926 C-161.04351632 549.66203073 -172.2824445 549.6086199 -183.52137047 549.5546174 C-196.36659611 549.4929727 -209.21182965 549.43305343 -222.05706394 549.37324238 C-248.37138483 549.25067869 -274.68569568 549.1260675 -301 549 C-301 548.67 -301 548.34 -301 548 C-226.42 547.67 -151.84 547.34 -75 547 C-86.11792799 485.81311514 -86.11792799 485.81311514 -97.44921875 424.66796875 C-99.19808263 415.31948419 -100.93012136 405.96814275 -102.64453125 396.61328125 C-102.85598282 395.45949982 -103.06743439 394.30571838 -103.28529358 393.11697388 C-104.28337106 387.6672626 -105.27922595 382.21715289 -106.27270508 376.76660156 C-106.62190018 374.85611845 -106.97110224 372.9456366 -107.3203125 371.03515625 C-107.47703934 370.17159012 -107.63376617 369.30802399 -107.79524231 368.41828918 C-107.94031723 367.62549057 -108.08539215 366.83269196 -108.23486328 366.01586914 C-108.42159103 364.99040733 -108.42159103 364.99040733 -108.61209106 363.94422913 C-108.87892161 362.6068541 -109.18548911 361.27699404 -109.52438354 359.95603943 C-111.06747604 353.60985494 -109.77362985 348.97894157 -107.625 342.9375 C-104.96280835 335.35423071 -103.49932495 328.04575711 -103 320 C-102.93345215 318.98244629 -102.8669043 317.96489258 -102.79833984 316.91650391 C-102.60119843 313.44431948 -102.47840999 309.97616661 -102.375 306.5 C-102.31530029 305.37746826 -102.25560059 304.25493652 -102.1940918 303.09838867 C-102.02794633 297.23203272 -102.02794633 297.23203272 -104.41870117 292.06616211 C-106.32275788 290.38312536 -106.32275788 290.38312536 -108.51757812 288.83349609 C-111.46496329 286.65658199 -113.99628774 284.16298568 -116.56640625 281.56640625 C-117.5566348 280.57746813 -118.54686925 279.58853591 -119.53710938 278.59960938 C-120.0349292 278.09969482 -120.53274902 277.59978027 -121.0456543 277.0847168 C-122.5599258 275.56508332 -124.0794743 274.05087483 -125.59960938 272.53710938 C-127.55383044 270.58791314 -129.48907039 268.6224811 -131.41064453 266.64111328 C-132.94617544 265.07488912 -134.51064935 263.53495479 -136.13232422 262.05810547 C-146.325663 252.15266808 -146.30043274 232.77545961 -148.0625 219.4375 C-148.19039917 218.48690704 -148.31829834 217.53631409 -148.45007324 216.55691528 C-150.99354516 197.54353371 -152.66917839 178.5198483 -153.85284424 159.37786865 C-154.00322651 156.94786334 -154.15736203 154.51811608 -154.31201172 152.08837891 C-154.61427401 147.30952623 -154.90492506 142.53005555 -155.1875 137.75 C-155.25209412 136.66245926 -155.25209412 136.66245926 -155.31799316 135.552948 C-155.58206342 131.03660797 -155.80450965 126.51993617 -156 122 C-156.05833008 120.91783203 -156.11666016 119.83566406 -156.17675781 118.72070312 C-156.20995117 117.74552734 -156.24314453 116.77035156 -156.27734375 115.765625 C-156.32942993 114.51700684 -156.32942993 114.51700684 -156.38256836 113.24316406 C-155.73105122 109.42303679 -153.16434055 107.58191244 -150.16015625 105.3671875 C-141.02979257 99.58847631 -131.56567003 99.02031306 -121 100 C-113.95794171 101.59219664 -109.15249828 105.07152339 -104 110 C-103.74476563 109.14245117 -103.48953125 108.28490234 -103.2265625 107.40136719 C-101.93759955 103.826958 -100.31753459 100.84115746 -98.375 97.578125 C-98.02743652 96.99206482 -97.67987305 96.40600464 -97.32177734 95.80218506 C-96.59160443 94.57368634 -95.8586517 93.34683594 -95.12304688 92.12158203 C-93.99710564 90.24517648 -92.88073845 88.36332508 -91.765625 86.48046875 C-86.29273521 77.29273521 -86.29273521 77.29273521 -84 75 C-83.6788451 78.37423005 -83.36995864 81.74949668 -83.0625 85.125 C-82.97548828 86.03765625 -82.88847656 86.9503125 -82.79882812 87.890625 C-81.83739294 98.57323822 -81.44230022 109.28590538 -81 120 C-76.70617909 113.6472875 -72.41486125 107.292887 -68.125 100.9375 C-67.4766217 99.97693695 -66.82824341 99.0163739 -66.16021729 98.02670288 C-55.62968394 82.42139521 -45.15621165 66.77907695 -34.74267578 51.09545898 C-28.65977322 41.94117677 -22.49180798 32.85161649 -16.24609375 23.80770874 C-13.08246101 19.21822536 -9.95003505 14.60734206 -6.8125 10 C-6.14669922 9.02289063 -5.48089844 8.04578125 -4.79492188 7.0390625 C-3.19631804 4.69291011 -1.59800852 2.34655789 0 0 Z " fill="#FED39A" transform="translate(340,90)"/>
<path d="M0 0 C2.39814417 0.49490417 4.73522539 1.05407785 7.10083008 1.67700195 C7.82144277 1.86228864 8.54205545 2.04757532 9.28450489 2.23847675 C16.66989253 4.14787137 24.03129008 6.14666787 31.38671875 8.16796875 C32.83481293 8.5644782 34.28294434 8.96085174 35.73110962 9.35710144 C40.38402436 10.63104877 45.03587138 11.90886565 49.6875 13.1875 C50.87902994 13.51497601 50.87902994 13.51497601 52.0946312 13.84906769 C59.49365064 15.88276065 66.89240005 17.91743274 74.29029846 19.9552002 C82.99313657 22.3518792 91.69849998 24.73877049 100.40901089 27.10741901 C106.06168402 28.64484037 111.71202566 30.19060999 117.3605814 31.74309063 C120.6356149 32.64284331 123.91166208 33.53837066 127.19076538 34.42318726 C130.81408217 35.40327365 134.43275836 36.39901308 138.05078125 37.3984375 C139.09142731 37.67584274 140.13207336 37.95324799 141.20425415 38.23905945 C167.39237848 45.56110955 183.71963831 65.1590863 196.68896484 87.97070312 C205.73058351 104.38401146 213.32669287 121.34370004 220.57080078 138.60400391 C221.89371304 141.74744592 223.23671542 144.88118953 224.58984375 148.01171875 C225.33109843 149.73682055 226.07201352 151.46206832 226.8125 153.1875 C227.31015869 154.33605469 227.31015869 154.33605469 227.81787109 155.5078125 C229.08674536 158.50126877 230 160.71323772 230 164 C228.453125 165.47265625 228.453125 165.47265625 226.25 167.0625 C221.48104104 170.5815602 217.07841315 174.40937008 212.67578125 178.375 C211.47120131 179.27825814 210.24206274 180.14901925 209 181 C208.156668 181.58068772 207.31333599 182.16137545 206.44444847 182.75965977 C194.89591208 189.59249455 183.47213707 188.94183149 170.36962891 188.79467773 C167.8946895 188.79270046 165.41974599 188.79381693 162.94480896 188.79777527 C157.64142488 188.79936205 152.33879082 188.7796928 147.03560257 188.7401104 C139.3684715 188.68292142 131.701631 188.66496001 124.03430979 188.65619446 C111.59106629 188.64092057 99.14814627 188.59446348 86.70507812 188.52807617 C74.62664392 188.46370179 62.54829796 188.41421249 50.46972656 188.38452148 C49.35063992 188.38176289 49.35063992 188.38176289 48.20894547 188.37894856 C44.46573302 188.36981248 40.72251994 188.36096672 36.97930646 188.35226524 C5.98596919 188.27984326 -25.00696602 188.15615444 -56 188 C-55.69325818 186.42300749 -55.38407775 184.84648922 -55.07389832 183.27016926 C-54.90199069 182.39219443 -54.73008307 181.5142196 -54.55296612 180.60963947 C-53.73957296 176.77095422 -52.63840532 173.04471453 -51.48828125 169.2956543 C-51.2434541 168.48391188 -50.99862696 167.67216946 -50.74638081 166.83582878 C-49.93941394 164.16396129 -49.12593343 161.4941239 -48.3125 158.82421875 C-47.73588702 156.91883413 -47.15974101 155.01330814 -46.58403015 153.10765076 C-45.36144847 149.0634568 -44.13621313 145.020081 -42.90878296 140.97735596 C-40.02645616 131.48305778 -37.1579813 121.98457262 -34.2893734 112.48612213 C-33.65035627 110.37036577 -33.01117664 108.25465848 -32.37183571 106.13899994 C-26.01988733 85.11810157 -19.77653564 64.06664391 -13.59570312 42.99487305 C-10.45697957 32.29668107 -7.30292675 21.60347594 -4.08203125 10.9296875 C-3.63799202 9.4468779 -3.63799202 9.4468779 -3.1849823 7.93411255 C-2.91229019 7.03530365 -2.63959808 6.13649475 -2.35864258 5.21044922 C-2.11954666 4.41839081 -1.88045074 3.6263324 -1.6341095 2.81027222 C-1 1 -1 1 0 0 Z " fill="#007FFE" transform="translate(403,445)"/>
<path d="M0 0 C3.46871578 17.4454824 6.72856759 34.91996083 9.8125 52.4375 C12.56729387 68.08213568 15.42282799 83.70393214 18.375 99.3125 C21.60676081 116.41945574 24.7550559 133.54025349 27.82598877 150.67684937 C28.27155516 153.16289034 28.71811191 155.64875403 29.16571045 158.13442993 C29.79076262 161.60858654 30.41167319 165.083457 31.03125 168.55859375 C31.21624054 169.584617 31.40123108 170.61064026 31.59182739 171.66775513 C31.84898026 173.11890213 31.84898026 173.11890213 32.11132812 174.59936523 C32.33375183 175.84447121 32.33375183 175.84447121 32.56066895 177.11473083 C32.94456869 179.63595962 33.2501958 182.14577636 33.52745819 184.68032932 C33.61630641 185.48960678 33.70515464 186.29888423 33.79669523 187.13268524 C33.89733109 188.05700605 33.89733109 188.05700605 34 189 C5.52291235 189.16365913 -22.95410462 189.28702879 -51.43156815 189.3626852 C-64.65473418 189.3987505 -77.87760769 189.44790462 -91.10058594 189.52807617 C-102.62828863 189.59793576 -114.15577942 189.64302891 -125.68368793 189.65861946 C-131.78543763 189.66773021 -137.88658121 189.68908091 -143.98813629 189.7401104 C-149.73711225 189.78779933 -155.48523528 189.80224519 -161.23439026 189.79175377 C-163.33862196 189.7936717 -165.44288364 189.8074913 -167.54694366 189.83443832 C-179.58652877 189.98100327 -188.24953774 189.78787336 -198 182 C-199.08643232 181.1746609 -199.08643232 181.1746609 -200.19481277 180.33264828 C-201.96949021 178.95211764 -203.64343073 177.50588025 -205.3125 176 C-205.89717041 175.48091064 -206.48184082 174.96182129 -207.08422852 174.42700195 C-208.22175042 173.41155557 -209.35507485 172.39138017 -210.48339844 171.36572266 C-211.79018084 170.18894533 -213.13049522 169.04959944 -214.4765625 167.91796875 C-215.12367188 167.34691406 -215.77078125 166.77585937 -216.4375 166.1875 C-216.97246094 165.72730469 -217.50742188 165.26710938 -218.05859375 164.79296875 C-220.33182143 160.46346044 -217.47655486 153.86913942 -216.10984802 149.44317627 C-215.85574661 148.64208435 -215.6016452 147.84099243 -215.33984375 147.015625 C-215.0716835 146.16055359 -214.80352325 145.30548218 -214.52723694 144.42449951 C-213.95760678 142.614947 -213.38507294 140.80630629 -212.80981445 138.99853516 C-211.9543293 136.30302666 -211.11431589 133.60304445 -210.27539062 130.90234375 C-203.46407018 109.23786788 -195.316369 86.19366714 -180 69 C-179.33742187 68.18402344 -178.67484375 67.36804688 -177.9921875 66.52734375 C-173.80605829 61.53024855 -169.32921301 57.48101655 -164.0625 53.6875 C-163.51384277 53.29111328 -162.96518555 52.89472656 -162.39990234 52.48632812 C-153.49177783 46.31417781 -143.93552928 42.7894497 -133.6015625 39.7265625 C-132.2754498 39.32624173 -130.94958511 38.92509866 -129.62394714 38.52320862 C-126.04063921 37.43926437 -122.45411621 36.36634841 -118.86688614 35.29546738 C-115.08599979 34.16474048 -111.30814384 33.02398033 -107.5300293 31.8840332 C-101.92012197 30.1922991 -96.30922383 28.5039175 -90.69722271 26.81914234 C-80.21895778 23.67293637 -69.74880179 20.50050887 -59.28163147 17.31760406 C-54.02038878 15.7179025 -48.7585943 14.12001667 -43.49687576 12.5218811 C-39.23030089 11.22594597 -34.96388482 9.9294936 -30.69781494 8.63189697 C-26.6787394 7.40968418 -22.65881541 6.19030159 -18.63823891 4.97303581 C-17.15375402 4.52308892 -15.6695657 4.07216228 -14.18568993 3.62021065 C-12.16077212 3.00360824 -10.13485584 2.39040575 -8.10864258 1.77807617 C-6.9710701 1.43282394 -5.83349762 1.08757172 -4.66145325 0.7318573 C-2 0 -2 0 0 0 Z " fill="#007EFE" transform="translate(225,444)"/>
<path d="M0 0 C2.10649301 3.59750397 2.74920592 7.17432907 3.5078125 11.25 C3.63815887 11.94512695 3.76850525 12.64025391 3.90280151 13.35644531 C4.1762059 14.82173 4.4466648 16.28756697 4.71435547 17.75390625 C5.12383355 19.99361991 5.54358741 22.23122508 5.96484375 24.46875 C8 35.43038366 8 35.43038366 8 40 C32.75 39.67 57.5 39.34 83 39 C83.33 39.99 83.66 40.98 84 42 C86.31367561 43.15683781 87.63762172 43.1297849 90.21290779 43.1386652 C91.54605465 43.14687687 91.54605465 43.14687687 92.90613377 43.15525442 C94.37984655 43.15672158 94.37984655 43.15672158 95.8833313 43.15821838 C97.44172802 43.16562535 97.44172802 43.16562535 99.03160751 43.17318195 C102.53555566 43.18861964 106.03948541 43.1969345 109.54345703 43.20532227 C112.04618493 43.21489587 114.5489112 43.22490563 117.05163574 43.23532104 C122.45149313 43.25680673 127.85134741 43.27524009 133.25122452 43.29092598 C141.05859813 43.31361055 148.86594449 43.34175532 156.67329501 43.37124526 C169.33931356 43.41893852 182.00534324 43.462198 194.67138672 43.50268555 C206.97738512 43.54203166 219.28337361 43.58345575 231.58935547 43.62768555 C232.3475269 43.63040982 233.10569833 43.63313409 233.88684465 43.63594092 C237.6902576 43.64962025 241.49367041 43.66334055 245.29708314 43.67708123 C276.86470169 43.79107325 308.43234096 43.89780296 340 44 C340 44.33 340 44.66 340 45 C305.91160816 45.12878397 271.82321179 45.25628936 237.73480916 45.38218227 C233.6701299 45.39719471 229.60545068 45.41221726 225.54077148 45.42724609 C224.3274453 45.43173202 224.3274453 45.43173202 223.08960748 45.43630856 C210.15384703 45.48415867 197.21808975 45.53282022 184.28233355 45.58180541 C170.91511583 45.63240549 157.54789488 45.68207866 144.1806708 45.73096704 C136.7121342 45.75830656 129.24359946 45.78601995 121.77506828 45.81480408 C64.57849728 46.03477915 7.38442493 46.07889453 -49.81221843 45.79807091 C-55.80966746 45.76895723 -61.80712451 45.74158554 -67.80458069 45.71398926 C-79.04351632 45.66203073 -90.2824445 45.6086199 -101.52137047 45.5546174 C-114.36659611 45.4929727 -127.21182965 45.43305343 -140.05706394 45.37324238 C-166.37138483 45.25067869 -192.68569568 45.1260675 -219 45 C-219 44.67 -219 44.34 -219 44 C-144.42 43.67 -69.84 43.34 7 43 C4.69 30.46 2.38 17.92 0 5 C0 3.35 0 1.7 0 0 Z " fill="#8C7353" transform="translate(258,594)"/>
<path d="M0 0 C0.52450942 8.20621122 1.04627466 16.41259048 1.56460571 24.61919403 C1.8054113 28.4304603 2.0471366 32.24166344 2.29101562 36.05273438 C2.52664691 39.73546307 2.75979453 43.41834159 2.99127197 47.10133362 C3.07970028 48.50148551 3.16900047 49.90158263 3.25921631 51.30162048 C4.54960296 71.35119111 4.54960296 71.35119111 3 76 C1.02 75.67 -0.96 75.34 -3 75 C-2.97679687 73.72253906 -2.95359375 72.44507813 -2.9296875 71.12890625 C-2.77000489 57.68687393 -3.33789361 44.37784774 -4.28857422 30.97680664 C-4.56703633 26.98663659 -4.80570053 22.99516375 -5 19 C-5.03544922 18.27125671 -5.07089844 17.54251343 -5.10742188 16.79168701 C-5.20114827 14.58893747 -5.26214677 12.38772187 -5.3125 10.18359375 C-5.36857422 8.22570923 -5.36857422 8.22570923 -5.42578125 6.22827148 C-5 3 -5 3 -3.04296875 1.05102539 C-1 0 -1 0 0 0 Z " fill="#D89F58" transform="translate(402,364)"/>
<path d="M0 0 C3.875 1.875 3.875 1.875 5 3 C6.57784648 21.78181395 4.4345958 39.85824122 -2.8515625 57.23828125 C-4.0498254 60.11981822 -5.04375703 63.03038306 -6 66 C-8.53450062 62.19824906 -8.67140517 58.38740013 -8 54 C-7.25220875 51.63153107 -6.45508742 49.27839549 -5.625 46.9375 C-0.28756323 31.81008543 -0.48527685 15.87802168 0 0 Z " fill="#CE9753" transform="translate(238,386)"/>
<path d="M0 0 C0.33 0 0.66 0 1 0 C1.12528076 0.95438965 1.25056152 1.9087793 1.37963867 2.89208984 C2.52252168 11.54711384 3.71963944 20.19261058 4.97949219 28.8314209 C5.5189065 32.55026062 6.04437738 36.26716265 6.48583984 39.99902344 C8.3858635 55.90769611 11.52548043 65.33652486 23.71728516 75.953125 C27.21345046 79.08808221 30.45622485 82.46178908 33.74169922 85.81469727 C36.2050666 88.32789345 38.68155053 90.82603771 41.17578125 93.30859375 C41.86583252 93.99751709 42.55588379 94.68644043 43.2668457 95.39624023 C44.92153015 97.07711137 44.92153015 97.07711137 47 98 C47 98.66 47 99.32 47 100 C46.01 100.33 45.02 100.66 44 101 C39.99482718 97.01974213 35.99310045 93.03606133 31.99438477 89.04931641 C30.63657873 87.69650645 29.27787249 86.34459934 27.91821289 84.99365234 C24.10523176 81.20447609 20.31741225 77.39299675 16.55340576 73.55517578 C15.28310265 72.28342523 13.96965771 71.05489648 12.64501953 69.83984375 C3.50922223 60.9601903 3.14791003 44.10488934 1.50708008 32.07128906 C1.18544169 29.73504934 0.84043843 27.40300962 0.49414062 25.0703125 C-0.72395817 16.51889998 -1.27373591 8.62059415 0 0 Z " fill="#F5CB89" transform="translate(191,282)"/>
<path d="M0 0 C0.66 0 1.32 0 2 0 C2.33 1.32 2.66 2.64 3 4 C3.66 2.68 4.32 1.36 5 0 C5.19706355 3.91624701 5.38099159 7.83300366 5.5625 11.75 C5.61857422 12.86117188 5.67464844 13.97234375 5.73242188 15.1171875 C5.78076172 16.18710937 5.82910156 17.25703125 5.87890625 18.359375 C5.94960327 19.83615723 5.94960327 19.83615723 6.02172852 21.34277344 C6.00187518 23.7706808 5.71119313 25.69161557 5 28 C3.02 27.67 1.04 27.34 -1 27 C-0.67 18.09 -0.34 9.18 0 0 Z " fill="#CD9753" transform="translate(400,412)"/>
<path d="M0 0 C4 2 4 2 5 3 C5.25342626 7.11870915 5.1852282 11.24941933 5.1875 15.375 C5.19974609 16.53773438 5.21199219 17.70046875 5.22460938 18.8984375 C5.22654297 20.0121875 5.22847656 21.1259375 5.23046875 22.2734375 C5.23457764 23.29872559 5.23868652 24.32401367 5.24291992 25.38037109 C5 28 5 28 3 31 C2.67 29.35 2.34 27.7 2 26 C1.34 26.33 0.68 26.66 0 27 C0 18.09 0 9.18 0 0 Z " fill="#D99F58" transform="translate(238,386)"/>
<path d="M0 0 C6.77704611 0.11850756 13.55395621 0.24330916 20.33081055 0.37231445 C22.63221667 0.41540228 24.93364941 0.45709352 27.23510742 0.49731445 C30.55916334 0.5556565 33.88308847 0.61916046 37.20703125 0.68359375 C38.72959282 0.70866249 38.72959282 0.70866249 40.28291321 0.73423767 C46.89278611 0.86873804 53.42455364 1.31452137 60 2 C60 2.33 60 2.66 60 3 C39.87 3 19.74 3 -1 3 C-0.67 2.01 -0.34 1.02 0 0 Z " fill="#DDB37E" transform="translate(262,637)"/>
<path d="M0 0 C0.15366997 6.39651259 -0.35153626 12.27698902 -1.5 18.5625 C-1.64308594 19.38041016 -1.78617187 20.19832031 -1.93359375 21.04101562 C-2.28228312 23.02854504 -2.64016085 25.01445896 -3 27 C-3.33 27 -3.66 27 -4 27 C-4.90334431 21.57993411 -5.19412421 16.17717748 -5.3125 10.6875 C-5.34214844 9.98173828 -5.37179687 9.27597656 -5.40234375 8.54882812 C-5.42578125 6.51171875 -5.42578125 6.51171875 -5 3 C-2.03550296 0 -2.03550296 0 0 0 Z " fill="#CF9853" transform="translate(402,364)"/>
<path d="M0 0 C0.66 0.33 1.32 0.66 2 1 C1.319375 1.763125 0.63875 2.52625 -0.0625 3.3125 C-0.701875 4.199375 -1.34125 5.08625 -2 6 C-1.67 6.99 -1.34 7.98 -1 9 C-3.31 10.65 -5.62 12.3 -8 14 C-8.56856149 9.16722732 -6.94019289 6.75691314 -4 3 C-1.75 1.125 -1.75 1.125 0 0 Z " fill="#FFD9A7" transform="translate(347,444)"/>
<path d="M0 0 C0.33 0 0.66 0 1 0 C1 13.2 1 26.4 1 40 C0.67 40 0.34 40 0 40 C0 26.8 0 13.6 0 0 Z " fill="#FBFBFB" transform="translate(513,288)"/>
<path d="M0 0 C0.66 0.33 1.32 0.66 2 1 C-2.29 5.29 -6.58 9.58 -11 14 C-11.66 13.67 -12.32 13.34 -13 13 C-11.39979779 11.20465118 -9.79509897 9.41370539 -8.1875 7.625 C-7.73568359 7.11710937 -7.28386719 6.60921875 -6.81835938 6.0859375 C-4.64829248 3.67827204 -2.71407209 1.80938139 0 0 Z " fill="#007DED" transform="translate(57,501)"/>
<path d="M0 0 C0 0.33 0 0.66 0 1 C-6.32589627 2.13955862 -12.52278338 2.1142637 -18.9375 2.0625 C-20.53561523 2.05573242 -20.53561523 2.05573242 -22.16601562 2.04882812 C-24.77740291 2.03711787 -27.38867124 2.02071724 -30 2 C-30 1.67 -30 1.34 -30 1 C-26.87522287 0.82897872 -23.75015208 0.66401507 -20.625 0.5 C-19.75488281 0.45230469 -18.88476562 0.40460938 -17.98828125 0.35546875 C-11.98637239 0.04425866 -6.00955557 -0.05823526 0 0 Z " fill="#FAFAFA" transform="translate(90,348)"/>
<path d="M0 0 C0.66 0.99 1.32 1.98 2 3 C-0.31 4.65 -2.62 6.3 -5 8 C-3.8141763 4.62496331 -2.72426311 2.35277269 0 0 Z " fill="#FFE0B6" transform="translate(344,450)"/>
<path d="M0 0 C3 2 3 2 3.875 5.875 C4.16804026 8.91598385 4.13598769 9.76349967 2.5625 12.5 C2.046875 12.995 1.53125 13.49 1 14 C-0.20568053 9.32798795 -0.09382426 4.78503708 0 0 Z " fill="#EBC485" transform="translate(195,321)"/>
<path d="M0 0 C0.99 0.495 0.99 0.495 2 1 C2.85486376 5.66289322 3.30042194 9.37627754 2 14 C-0.28062828 10.57905758 -0.21925007 9.31812778 -0.125 5.3125 C-0.10695312 4.31863281 -0.08890625 3.32476562 -0.0703125 2.30078125 C-0.04710937 1.54152344 -0.02390625 0.78226562 0 0 Z " fill="#F8D38E" transform="translate(192,299)"/>
<path d="M0 0 C2.89932357 2.39509338 3.50168276 4.31245243 4 8 C2.35 8 0.7 8 -1 8 C-0.67 5.36 -0.34 2.72 0 0 Z " fill="#DAA159" transform="translate(236,422)"/>
<path d="M0 0 C6.6 0 13.2 0 20 0 C20 0.33 20 0.66 20 1 C13.4 1 6.8 1 0 1 C0 0.67 0 0.34 0 0 Z " fill="#FAFAFA" transform="translate(24,322)"/>
<path d="M0 0 C0.66 1.32 1.32 2.64 2 4 C1.38125 4.144375 0.7625 4.28875 0.125 4.4375 C-2.03258322 4.93152225 -2.03258322 4.93152225 -4 6 C-3.67 4.35 -3.34 2.7 -3 1 C-2.01 0.67 -1.02 0.34 0 0 Z " fill="#D79E58" transform="translate(236,433)"/>
<path d="M0 0 C5.28 0 10.56 0 16 0 C16 0.33 16 0.66 16 1 C10.72 1 5.44 1 0 1 C0 0.67 0 0.34 0 0 Z " fill="#FCFCFC" transform="translate(86,419)"/>
<path d="M0 0 C0.33 0.66 0.66 1.32 1 2 C-3.95 2 -8.9 2 -14 2 C-14 1.67 -14 1.34 -14 1 C-9.38 0.67 -4.76 0.34 0 0 Z " fill="#FBFBFB" transform="translate(118,403)"/>
<path d="M0 0 C0.33 0 0.66 0 1 0 C1 5.28 1 10.56 1 16 C0.67 16 0.34 16 0 16 C0 10.72 0 5.44 0 0 Z " fill="#FCFCFC" transform="translate(512,272)"/>
<path d="M0 0 C0.33 0 0.66 0 1 0 C1 4.29 1 8.58 1 13 C0.67 13 0.34 13 0 13 C0 8.71 0 4.42 0 0 Z " fill="#FBFBFB" transform="translate(512,329)"/>
<path d="M0 0 C3.63 0 7.26 0 11 0 C11 0.33 11 0.66 11 1 C7.37 1 3.74 1 0 1 C0 0.67 0 0.34 0 0 Z " fill="#FBFBFB" transform="translate(44,321)"/>
<path d="M0 0 C0.33 0 0.66 0 1 0 C1 3.3 1 6.6 1 10 C0.67 10 0.34 10 0 10 C0 6.7 0 3.4 0 0 Z " fill="#FBFBFB" transform="translate(511,261)"/>
<path d="M0 0 C0.33 0 0.66 0 1 0 C1 3.3 1 6.6 1 10 C0.67 10 0.34 10 0 10 C0 6.7 0 3.4 0 0 Z " fill="#FBFBFB" transform="translate(510,250)"/>
<path d="M0 0 C0.33 0 0.66 0 1 0 C1 2.97 1 5.94 1 9 C0.67 9 0.34 9 0 9 C0 6.03 0 3.06 0 0 Z " fill="#FBFBFB" transform="translate(511,343)"/>
<path d="M0 0 C0.33 0 0.66 0 1 0 C1 2.97 1 5.94 1 9 C0.67 9 0.34 9 0 9 C0 6.03 0 3.06 0 0 Z " fill="#FCFCFC" transform="translate(132,236)"/>
<path d="M0 0 C2.64 0 5.28 0 8 0 C8 0.33 8 0.66 8 1 C5.36 1 2.72 1 0 1 C0 0.67 0 0.34 0 0 Z " fill="#FBFBFB" transform="translate(96,403)"/>
<path d="M0 0 C0.33 0 0.66 0 1 0 C1 2.64 1 5.28 1 8 C0.67 8 0.34 8 0 8 C0 5.36 0 2.72 0 0 Z " fill="#FCFCFC" transform="translate(130,253)"/>
<path d="M0 0 C0.33 0 0.66 0 1 0 C1 2.64 1 5.28 1 8 C0.67 8 0.34 8 0 8 C0 5.36 0 2.72 0 0 Z " fill="#FBFBFB" transform="translate(131,245)"/>
<path d="M0 0 C0.33 0 0.66 0 1 0 C1 2.64 1 5.28 1 8 C0.67 8 0.34 8 0 8 C0 5.36 0 2.72 0 0 Z " fill="#FCFCFC" transform="translate(509,242)"/>
<path d="M0 0 C0.33 0 0.66 0 1 0 C1 2.64 1 5.28 1 8 C0.67 8 0.34 8 0 8 C0 5.36 0 2.72 0 0 Z " fill="#FCFCFC" transform="translate(508,234)"/>
<path d="M0 0 C0.33 0 0.66 0 1 0 C1 2.64 1 5.28 1 8 C0.67 8 0.34 8 0 8 C0 5.36 0 2.72 0 0 Z " fill="#FBFBFB" transform="translate(133,227)"/>
<path d="M0 0 C0.33 0 0.66 0 1 0 C1 2.64 1 5.28 1 8 C0.67 8 0.34 8 0 8 C0 5.36 0 2.72 0 0 Z " fill="#FBFBFB" transform="translate(134,218)"/>
<path d="M0 0 C0.33 0 0.66 0 1 0 C1 2.64 1 5.28 1 8 C0.67 8 0.34 8 0 8 C0 5.36 0 2.72 0 0 Z " fill="#FBFBFB" transform="translate(135,210)"/>
<path d="M0 0 C0.33 0 0.66 0 1 0 C1 2.31 1 4.62 1 7 C0.67 7 0.34 7 0 7 C0 4.69 0 2.38 0 0 Z " fill="#FCFCFC" transform="translate(510,352)"/>
<path d="M0 0 C2.31 0 4.62 0 7 0 C7 0.33 7 0.66 7 1 C4.69 1 2.38 1 0 1 C0 0.67 0 0.34 0 0 Z " fill="#FBFBFB" transform="translate(53,348)"/>
<path d="M0 0 C2.31 0 4.62 0 7 0 C7 0.33 7 0.66 7 1 C4.69 1 2.38 1 0 1 C0 0.67 0 0.34 0 0 Z " fill="#FBFBFB" transform="translate(73,347)"/>
<path d="M0 0 C2.31 0 4.62 0 7 0 C7 0.33 7 0.66 7 1 C4.69 1 2.38 1 0 1 C0 0.67 0 0.34 0 0 Z " fill="#FBFBFB" transform="translate(55,320)"/>
<path d="M0 0 C0.33 0 0.66 0 1 0 C1 2.31 1 4.62 1 7 C0.67 7 0.34 7 0 7 C0 4.69 0 2.38 0 0 Z " fill="#FCFCFC" transform="translate(507,227)"/>
<path d="M0 0 C0.33 0 0.66 0 1 0 C1 2.31 1 4.62 1 7 C0.67 7 0.34 7 0 7 C0 4.69 0 2.38 0 0 Z " fill="#FCFCFC" transform="translate(136,203)"/>
<path d="M0 0 C0.33 0 0.66 0 1 0 C1 2.31 1 4.62 1 7 C0.67 7 0.34 7 0 7 C0 4.69 0 2.38 0 0 Z " fill="#FCFCFC" transform="translate(137,196)"/>
<path d="M0 0 C0.33 0 0.66 0 1 0 C1 1.98 1 3.96 1 6 C0.67 6 0.34 6 0 6 C0 4.02 0 2.04 0 0 Z " fill="#FCFCFC" transform="translate(508,365)"/>
<path d="M0 0 C0.33 0 0.66 0 1 0 C1 1.98 1 3.96 1 6 C0.67 6 0.34 6 0 6 C0 4.02 0 2.04 0 0 Z " fill="#FCFCFC" transform="translate(509,359)"/>
<path d="M0 0 C0.33 0 0.66 0 1 0 C1 1.98 1 3.96 1 6 C0.67 6 0.34 6 0 6 C0 4.02 0 2.04 0 0 Z " fill="#FCFCFC" transform="translate(129,262)"/>
<path d="M0 0 C0.33 0 0.66 0 1 0 C1 1.98 1 3.96 1 6 C0.67 6 0.34 6 0 6 C0 4.02 0 2.04 0 0 Z " fill="#FBFBFB" transform="translate(506,221)"/>
<path d="M0 0 C0.33 0 0.66 0 1 0 C1 1.98 1 3.96 1 6 C0.67 6 0.34 6 0 6 C0 4.02 0 2.04 0 0 Z " fill="#FBFBFB" transform="translate(505,214)"/>
<path d="M0 0 C0.33 0 0.66 0 1 0 C1 1.98 1 3.96 1 6 C0.67 6 0.34 6 0 6 C0 4.02 0 2.04 0 0 Z " fill="#FCFCFC" transform="translate(504,208)"/>
<path d="M0 0 C0.33 0 0.66 0 1 0 C1 1.98 1 3.96 1 6 C0.67 6 0.34 6 0 6 C0 4.02 0 2.04 0 0 Z " fill="#FCFCFC" transform="translate(503,202)"/>
<path d="M0 0 C0.33 0 0.66 0 1 0 C1 1.98 1 3.96 1 6 C0.67 6 0.34 6 0 6 C0 4.02 0 2.04 0 0 Z " fill="#FCFCFC" transform="translate(501,191)"/>
<path d="M0 0 C0.33 0 0.66 0 1 0 C1 1.98 1 3.96 1 6 C0.67 6 0.34 6 0 6 C0 4.02 0 2.04 0 0 Z " fill="#FBFBFB" transform="translate(138,189)"/>
<path d="M0 0 C0.33 0 0.66 0 1 0 C1 1.98 1 3.96 1 6 C0.67 6 0.34 6 0 6 C0 4.02 0 2.04 0 0 Z " fill="#FCFCFC" transform="translate(141,171)"/>
<path d="M0 0 C1.98 0 3.96 0 6 0 C6 0.33 6 0.66 6 1 C4.02 1 2.04 1 0 1 C0 0.67 0 0.34 0 0 Z " fill="#FBFBFB" transform="translate(335,0)"/>
<path d="M0 0 C0.66 0 1.32 0 2 0 C2 0.66 2 1.32 2 2 C1.01 1.67 0.02 1.34 -1 1 C-0.67 0.67 -0.34 0.34 0 0 Z " fill="#FBFBFB" transform="translate(135,462)"/>
<path d="M0 0 C1.485 0.99 1.485 0.99 3 2 C1.68 1.67 0.36 1.34 -1 1 C-0.67 0.67 -0.34 0.34 0 0 Z " fill="#FCFCFC" transform="translate(468,454)"/>
<path d="M0 0 C1.65 0 3.3 0 5 0 C5 0.33 5 0.66 5 1 C3.35 1 1.7 1 0 1 C0 0.67 0 0.34 0 0 Z " fill="#FBFBFB" transform="translate(103,418)"/>
<path d="M0 0 C0.33 0 0.66 0 1 0 C1 1.65 1 3.3 1 5 C0.67 5 0.34 5 0 5 C0 3.35 0 1.7 0 0 Z " fill="#FBFBFB" transform="translate(507,371)"/>
<path d="M0 0 C1.65 0 3.3 0 5 0 C5 0.33 5 0.66 5 1 C3.35 1 1.7 1 0 1 C0 0.67 0 0.34 0 0 Z " fill="#FBFBFB" transform="translate(68,346)"/>
<path d="M0 0 C1.65 0 3.3 0 5 0 C5 0.33 5 0.66 5 1 C3.35 1 1.7 1 0 1 C0 0.67 0 0.34 0 0 Z " fill="#FBFBFB" transform="translate(62,319)"/>
<path d="M0 0 C0.33 0 0.66 0 1 0 C1 1.65 1 3.3 1 5 C0.67 5 0.34 5 0 5 C0 3.35 0 1.7 0 0 Z " fill="#FBFBFB" transform="translate(502,197)"/>
<path d="M0 0 C0.33 0 0.66 0 1 0 C1 1.65 1 3.3 1 5 C0.67 5 0.34 5 0 5 C0 3.35 0 1.7 0 0 Z " fill="#FBFBFB" transform="translate(500,186)"/>
<path d="M0 0 C0.33 0 0.66 0 1 0 C1 1.65 1 3.3 1 5 C0.67 5 0.34 5 0 5 C0 3.35 0 1.7 0 0 Z " fill="#FBFBFB" transform="translate(139,183)"/>
<path d="M0 0 C0.33 0 0.66 0 1 0 C1 1.65 1 3.3 1 5 C0.67 5 0.34 5 0 5 C0 3.35 0 1.7 0 0 Z " fill="#FBFBFB" transform="translate(499,181)"/>
<path d="M0 0 C0.33 0 0.66 0 1 0 C1 1.65 1 3.3 1 5 C0.67 5 0.34 5 0 5 C0 3.35 0 1.7 0 0 Z " fill="#FBFBFB" transform="translate(140,177)"/>
<path d="M0 0 C0.33 0 0.66 0 1 0 C1 1.65 1 3.3 1 5 C0.67 5 0.34 5 0 5 C0 3.35 0 1.7 0 0 Z " fill="#FBFBFB" transform="translate(142,166)"/>
<path d="M0 0 C0.33 0 0.66 0 1 0 C1 1.65 1 3.3 1 5 C0.67 5 0.34 5 0 5 C0 3.35 0 1.7 0 0 Z " fill="#FCFCFC" transform="translate(143,161)"/>
<path d="M0 0 C0.33 0 0.66 0 1 0 C1 1.65 1 3.3 1 5 C0.67 5 0.34 5 0 5 C0 3.35 0 1.7 0 0 Z " fill="#FBFBFB" transform="translate(144,156)"/>
<path d="M0 0 C1.65 0 3.3 0 5 0 C5 0.33 5 0.66 5 1 C3.35 1 1.7 1 0 1 C0 0.67 0 0.34 0 0 Z " fill="#FCFCFC" transform="translate(346,2)"/>
<path d="M0 0 C1.65 0 3.3 0 5 0 C5 0.33 5 0.66 5 1 C3.35 1 1.7 1 0 1 C0 0.67 0 0.34 0 0 Z " fill="#FBFBFB" transform="translate(341,1)"/>
<path d="M0 0 C1.65 0 3.3 0 5 0 C5 0.33 5 0.66 5 1 C3.35 1 1.7 1 0 1 C0 0.67 0 0.34 0 0 Z " fill="#FCFCFC" transform="translate(268,0)"/>
<path d="M0 0 C4 1 4 1 4 1 Z " fill="#FCFCFC" transform="translate(84,478)"/>
<path d="M0 0 C4 1 4 1 4 1 Z " fill="#FCFCFC" transform="translate(547,477)"/>
<path d="M0 0 C4 1 4 1 4 1 Z " fill="#FCFCFC" transform="translate(536,474)"/>
<path d="M0 0 C4 1 4 1 4 1 Z " fill="#FCFCFC" transform="translate(525,471)"/>
<path d="M0 0 C4 1 4 1 4 1 Z " fill="#FCFCFC" transform="translate(107,471)"/>
<path d="M0 0 C4 1 4 1 4 1 Z " fill="#FCFCFC" transform="translate(518,469)"/>
<path d="M0 0 C4 1 4 1 4 1 Z " fill="#FCFCFC" transform="translate(507,466)"/>
<path d="M0 0 C4 1 4 1 4 1 Z " fill="#FCFCFC" transform="translate(496,463)"/>
<path d="M0 0 C4 1 4 1 4 1 Z " fill="#FCFCFC" transform="translate(489,461)"/>
<path d="M0 0 C4 1 4 1 4 1 Z " fill="#FCFCFC" transform="translate(478,458)"/>
<path d="M0 0 C4 1 4 1 4 1 Z " fill="#FBFBFB" transform="translate(92,402)"/>
<path d="M0 0 C4 1 4 1 4 1 Z " fill="#FCFCFC" transform="translate(88,401)"/>
<path d="M0 0 C1 4 1 4 1 4 Z " fill="#FCFCFC" transform="translate(504,384)"/>
<path d="M0 0 C1 4 1 4 1 4 Z " fill="#FCFCFC" transform="translate(505,380)"/>
<path d="M0 0 C1 4 1 4 1 4 Z " fill="#FCFCFC" transform="translate(506,376)"/>
<path d="M0 0 C1 4 1 4 1 4 Z " fill="#FCFCFC" transform="translate(52,355)"/>
<path d="M0 0 C1 4 1 4 1 4 Z " fill="#FBFBFB" transform="translate(51,351)"/>
<path d="M0 0 C4 1 4 1 4 1 Z " fill="#FBFBFB" transform="translate(68,318)"/>
<path d="M0 0 C4 1 4 1 4 1 Z " fill="#FCFCFC" transform="translate(72,317)"/>
<path d="M0 0 C4 1 4 1 4 1 Z " fill="#FCFCFC" transform="translate(76,316)"/>
<path d="M0 0 C1 4 1 4 1 4 Z " fill="#FCFCFC" transform="translate(127,272)"/>
<path d="M0 0 C1 4 1 4 1 4 Z " fill="#FBFBFB" transform="translate(128,268)"/>
<path d="M0 0 C1 4 1 4 1 4 Z " fill="#FBFBFB" transform="translate(498,177)"/>
<path d="M0 0 C1 4 1 4 1 4 Z " fill="#FCFCFC" transform="translate(496,168)"/>
<path d="M0 0 C1 4 1 4 1 4 Z " fill="#FCFCFC" transform="translate(495,164)"/>
<path d="M0 0 C1 4 1 4 1 4 Z " fill="#FCFCFC" transform="translate(145,152)"/>
<path d="M0 0 C1 4 1 4 1 4 Z " fill="#FBFBFB" transform="translate(146,148)"/>
<path d="M0 0 C1 4 1 4 1 4 Z " fill="#FCFCFC" transform="translate(149,136)"/>
<path d="M0 0 C4 1 4 1 4 1 Z " fill="#FCFCFC" transform="translate(355,4)"/>
<path d="M0 0 C4 1 4 1 4 1 Z " fill="#FBFBFB" transform="translate(351,3)"/>
<path d="M0 0 C4 1 4 1 4 1 Z " fill="#FBFBFB" transform="translate(264,1)"/>
<path d="M0 0 C3 1 3 1 3 1 Z " fill="#FCFCFC" transform="translate(599,639)"/>
<path d="M0 0 C3 1 3 1 3 1 Z " fill="#FCFCFC" transform="translate(36,639)"/>
<path d="" fill="#FCFCFC" transform="translate(0,0)"/>
<path d="" fill="#FCFCFC" transform="translate(0,0)"/>
<path d="" fill="#FCFCFC" transform="translate(0,0)"/>
<path d="" fill="#FBFBFB" transform="translate(0,0)"/>
<path d="" fill="#FCFCFC" transform="translate(0,0)"/>
<path d="" fill="#FCFCFC" transform="translate(0,0)"/>
<path d="" fill="#FCFCFC" transform="translate(0,0)"/>
<path d="" fill="#FCFCFC" transform="translate(0,0)"/>
<path d="" fill="#FBFBFB" transform="translate(0,0)"/>
<path d="" fill="#FCFCFC" transform="translate(0,0)"/>
<path d="" fill="#FCFCFC" transform="translate(0,0)"/>
<path d="" fill="#FCFCFC" transform="translate(0,0)"/>
<path d="" fill="#FCFCFC" transform="translate(0,0)"/>
<path d="" fill="#FCFCFC" transform="translate(0,0)"/>
<path d="" fill="#FCFCFC" transform="translate(0,0)"/>
<path d="" fill="#FCFCFC" transform="translate(0,0)"/>
<path d="" fill="#FCFCFC" transform="translate(0,0)"/>
<path d="" fill="#FCFCFC" transform="translate(0,0)"/>
<path d="M0 0 C3 1 3 1 3 1 Z " fill="#FBFBFB" transform="translate(75,481)"/>
<path d="M0 0 C3 1 3 1 3 1 Z " fill="#FCFCFC" transform="translate(78,480)"/>
<path d="M0 0 C3 1 3 1 3 1 Z " fill="#FCFCFC" transform="translate(81,479)"/>
<path d="M0 0 C3 1 3 1 3 1 Z " fill="#FBFBFB" transform="translate(551,478)"/>
<path d="M0 0 C3 1 3 1 3 1 Z " fill="#FBFBFB" transform="translate(88,477)"/>
<path d="M0 0 C3 1 3 1 3 1 Z " fill="#FAFAFA" transform="translate(544,476)"/>
<path d="M0 0 C3 1 3 1 3 1 Z " fill="#FBFBFB" transform="translate(91,476)"/>
<path d="M0 0 C3 1 3 1 3 1 Z " fill="#FBFBFB" transform="translate(540,475)"/>
<path d="M0 0 C3 1 3 1 3 1 Z " fill="#FBFBFB" transform="translate(94,475)"/>
<path d="M0 0 C3 1 3 1 3 1 Z " fill="#FBFBFB" transform="translate(98,474)"/>
<path d="M0 0 C3 1 3 1 3 1 Z " fill="#FBFBFB" transform="translate(533,473)"/>
<path d="M0 0 C3 1 3 1 3 1 Z " fill="#FCFCFC" transform="translate(101,473)"/>
<path d="M0 0 C3 1 3 1 3 1 Z " fill="#FBFBFB" transform="translate(529,472)"/>
<path d="M0 0 C3 1 3 1 3 1 Z " fill="#FBFBFB" transform="translate(104,472)"/>
<path d="M0 0 C3 1 3 1 3 1 Z " fill="#FBFBFB" transform="translate(522,470)"/>
<path d="M0 0 C3 1 3 1 3 1 Z " fill="#FBFBFB" transform="translate(111,470)"/>
<path d="M0 0 C3 1 3 1 3 1 Z " fill="#FBFBFB" transform="translate(114,469)"/>
<path d="M0 0 C3 1 3 1 3 1 Z " fill="#FAFAFA" transform="translate(515,468)"/>
<path d="M0 0 C3 1 3 1 3 1 Z " fill="#FBFBFB" transform="translate(117,468)"/>
<path d="M0 0 C3 1 3 1 3 1 Z " fill="#FBFBFB" transform="translate(511,467)"/>
<path d="M0 0 C3 1 3 1 3 1 Z " fill="#FBFBFB" transform="translate(121,467)"/>
<path d="M0 0 C3 1 3 1 3 1 Z " fill="#FBFBFB" transform="translate(124,466)"/>
<path d="M0 0 C3 1 3 1 3 1 Z " fill="#FBFBFB" transform="translate(504,465)"/>
<path d="M0 0 C3 1 3 1 3 1 Z " fill="#FBFBFB" transform="translate(127,465)"/>
<path d="M0 0 C3 1 3 1 3 1 Z " fill="#FBFBFB" transform="translate(500,464)"/>
<path d="M0 0 C3 1 3 1 3 1 Z " fill="#FBFBFB" transform="translate(131,464)"/>
<path d="M0 0 C3 1 3 1 3 1 Z " fill="#FBFBFB" transform="translate(493,462)"/>
<path d="M0 0 C3 1 3 1 3 1 Z " fill="#FBFBFB" transform="translate(486,460)"/>
<path d="M0 0 C3 1 3 1 3 1 Z " fill="#FBFBFB" transform="translate(482,459)"/>
<path d="M0 0 C3 1 3 1 3 1 Z " fill="#FBFBFB" transform="translate(475,457)"/>
<path d="M0 0 C3 1 3 1 3 1 Z " fill="#FBFBFB" transform="translate(471,456)"/>
<path d="" fill="#FDFDFD" transform="translate(0,0)"/>
<path d="" fill="#FCFCFC" transform="translate(0,0)"/>
<path d="M0 0 C3 1 3 1 3 1 Z " fill="#FCFCFC" transform="translate(85,400)"/>
<path d="" fill="#FDFDFD" transform="translate(0,0)"/>
<path d="" fill="#FCFCFC" transform="translate(0,0)"/>
<path d="" fill="#FCFCFC" transform="translate(0,0)"/>
<path d="" fill="#FCFCFC" transform="translate(0,0)"/>
<path d="" fill="#FCFCFC" transform="translate(0,0)"/>
<path d="" fill="#FCFCFC" transform="translate(0,0)"/>
<path d="M0 0 C3 1 3 1 3 1 Z " fill="#FAFAFA" transform="translate(65,345)"/>
<path d="M0 0 C3 1 3 1 3 1 Z " fill="#FBFBFB" transform="translate(61,344)"/>
<path d="M0 0 C3 1 3 1 3 1 Z " fill="#FCFCFC" transform="translate(58,343)"/>
<path d="M0 0 C3 1 3 1 3 1 Z " fill="#FCFCFC" transform="translate(55,342)"/>
<path d="M0 0 C3 1 3 1 3 1 Z " fill="#FCFCFC" transform="translate(50,340)"/>
<path d="M0 0 C3 1 3 1 3 1 Z " fill="#FBFBFB" transform="translate(80,315)"/>
<path d="M0 0 C3 1 3 1 3 1 Z " fill="#FCFCFC" transform="translate(83,314)"/>
<path d="" fill="#FCFCFC" transform="translate(0,0)"/>
<path d="" fill="#FBFBFB" transform="translate(0,0)"/>
<path d="" fill="#FCFCFC" transform="translate(0,0)"/>
<path d="" fill="#FCFCFC" transform="translate(0,0)"/>
<path d="" fill="#FCFCFC" transform="translate(0,0)"/>
<path d="" fill="#FCFCFC" transform="translate(0,0)"/>
<path d="" fill="#FCFCFC" transform="translate(0,0)"/>
<path d="" fill="#FBFBFB" transform="translate(0,0)"/>
<path d="" fill="#FBFBFB" transform="translate(0,0)"/>
<path d="" fill="#FCFCFC" transform="translate(0,0)"/>
<path d="" fill="#FCFCFC" transform="translate(0,0)"/>
<path d="" fill="#FCFCFC" transform="translate(0,0)"/>
<path d="" fill="#FCFCFC" transform="translate(0,0)"/>
<path d="" fill="#FCFCFC" transform="translate(0,0)"/>
<path d="" fill="#FDFDFD" transform="translate(0,0)"/>
<path d="" fill="#FCFCFC" transform="translate(0,0)"/>
<path d="" fill="#FDFDFD" transform="translate(0,0)"/>
<path d="" fill="#FDFDFD" transform="translate(0,0)"/>
<path d="M0 0 C3 1 3 1 3 1 Z " fill="#FCFCFC" transform="translate(374,10)"/>
<path d="M0 0 C3 1 3 1 3 1 Z " fill="#FBFBFB" transform="translate(366,7)"/>
<path d="M0 0 C3 1 3 1 3 1 Z " fill="#FBFBFB" transform="translate(359,5)"/>
<path d="M0 0 C3 1 3 1 3 1 Z " fill="#FBFBFB" transform="translate(250,5)"/>
<path d="M0 0 C3 1 3 1 3 1 Z " fill="#FBFBFB" transform="translate(253,4)"/>
<path d="M0 0 C3 1 3 1 3 1 Z " fill="#FBFBFB" transform="translate(256,3)"/>
<path d="M0 0 C3 1 3 1 3 1 Z " fill="#FAFAFA" transform="translate(260,2)"/>
<path d="M0 0 C2 1 2 1 2 1 Z " fill="#FBFBFB" transform="translate(602,638)"/>
<path d="M0 0 C2 1 2 1 2 1 Z " fill="#FCFCFC" transform="translate(34,638)"/>
<path d="M0 0 C2 1 2 1 2 1 Z " fill="#FCFCFC" transform="translate(604,637)"/>
<path d="M0 0 C2 1 2 1 2 1 Z " fill="#FCFCFC" transform="translate(32,637)"/>
<path d="M0 0 C2 1 2 1 2 1 Z " fill="#FCFCFC" transform="translate(30,636)"/>
<path d="M0 0 C2 1 2 1 2 1 Z " fill="#FDFDFD" transform="translate(608,635)"/>
<path d="M0 0 C2 1 2 1 2 1 Z " fill="#FEFEFE" transform="translate(610,634)"/>
<path d="M0 0 C2 1 2 1 2 1 Z " fill="#FDFDFD" transform="translate(25,633)"/>
<path d="M0 0 C2 1 2 1 2 1 Z " fill="#FEFEFE" transform="translate(613,632)"/>
<path d="M0 0 C2 1 2 1 2 1 Z " fill="#FDFDFD" transform="translate(21,630)"/>
<path d="M0 0 C2 1 2 1 2 1 Z " fill="#FEFEFE" transform="translate(617,629)"/>
<path d="M0 0 C2 1 2 1 2 1 Z " fill="#FEFEFE" transform="translate(17,627)"/>
<path d="M0 0 C2 1 2 1 2 1 Z " fill="#FEFEFE" transform="translate(622,625)"/>
<path d="M0 0 C2 1 2 1 2 1 Z " fill="#FEFEFE" transform="translate(628,620)"/>
<path d="M0 0 C2 1 2 1 2 1 Z " fill="#FEFEFE" transform="translate(634,615)"/>
<path d="" fill="#FCFCFC" transform="translate(0,0)"/>
<path d="" fill="#FCFCFC" transform="translate(0,0)"/>
<path d="" fill="#FDFDFD" transform="translate(0,0)"/>
<path d="" fill="#FBFBFB" transform="translate(0,0)"/>
<path d="" fill="#FBFBFB" transform="translate(0,0)"/>
<path d="" fill="#FDFDFD" transform="translate(0,0)"/>
<path d="" fill="#FDFDFD" transform="translate(0,0)"/>
<path d="" fill="#FBFBFB" transform="translate(0,0)"/>
<path d="" fill="#FDFDFD" transform="translate(0,0)"/>
<path d="" fill="#FCFCFC" transform="translate(0,0)"/>
<path d="" fill="#FDFDFD" transform="translate(0,0)"/>
<path d="" fill="#FCFCFC" transform="translate(0,0)"/>
<path d="" fill="#FDFDFD" transform="translate(0,0)"/>
<path d="" fill="#FCFCFC" transform="translate(0,0)"/>
<path d="" fill="#FDFDFD" transform="translate(0,0)"/>
<path d="" fill="#FDFDFD" transform="translate(0,0)"/>
<path d="" fill="#FDFDFD" transform="translate(0,0)"/>
<path d="" fill="#FDFDFD" transform="translate(0,0)"/>
<path d="" fill="#FDFDFD" transform="translate(0,0)"/>
<path d="" fill="#FDFDFD" transform="translate(0,0)"/>
<path d="" fill="#FCFCFC" transform="translate(0,0)"/>
<path d="" fill="#FDFDFD" transform="translate(0,0)"/>
<path d="" fill="#FCFCFC" transform="translate(0,0)"/>
<path d="" fill="#FCFCFC" transform="translate(0,0)"/>
<path d="" fill="#FDFDFD" transform="translate(0,0)"/>
<path d="" fill="#FDFDFD" transform="translate(0,0)"/>
<path d="" fill="#FDFDFD" transform="translate(0,0)"/>
<path d="" fill="#FDFDFD" transform="translate(0,0)"/>
<path d="" fill="#FDFDFD" transform="translate(0,0)"/>
<path d="" fill="#FEFEFE" transform="translate(0,0)"/>
<path d="" fill="#FDFDFD" transform="translate(0,0)"/>
<path d="" fill="#FDFDFD" transform="translate(0,0)"/>
<path d="" fill="#FEFEFE" transform="translate(0,0)"/>
<path d="" fill="#FEFEFE" transform="translate(0,0)"/>
<path d="" fill="#FDFDFD" transform="translate(0,0)"/>
<path d="" fill="#FEFEFE" transform="translate(0,0)"/>
<path d="" fill="#FEFEFE" transform="translate(0,0)"/>
<path d="" fill="#FEFEFE" transform="translate(0,0)"/>
<path d="M0 0 C2 1 2 1 2 1 Z " fill="#FEFEFE" transform="translate(57,491)"/>
<path d="M0 0 C2 1 2 1 2 1 Z " fill="#FEFEFE" transform="translate(573,490)"/>
<path d="M0 0 C2 1 2 1 2 1 Z " fill="#FDFDFD" transform="translate(60,489)"/>
<path d="M0 0 C2 1 2 1 2 1 Z " fill="#FEFEFE" transform="translate(569,487)"/>
<path d="M0 0 C2 1 2 1 2 1 Z " fill="#FDFDFD" transform="translate(63,487)"/>
<path d="M0 0 C2 1 2 1 2 1 Z " fill="#FDFDFD" transform="translate(566,485)"/>
<path d="M0 0 C2 1 2 1 2 1 Z " fill="#FCFCFC" transform="translate(68,484)"/>
<path d="M0 0 C2 1 2 1 2 1 Z " fill="#FCFCFC" transform="translate(563,483)"/>
<path d="M0 0 C2 1 2 1 2 1 Z " fill="#FCFCFC" transform="translate(70,483)"/>
<path d="M0 0 C2 1 2 1 2 1 Z " fill="#FCFCFC" transform="translate(561,482)"/>
<path d="M0 0 C2 1 2 1 2 1 Z " fill="#FBFBFB" transform="translate(72,482)"/>
<path d="M0 0 C2 1 2 1 2 1 Z " fill="#FCFCFC" transform="translate(559,481)"/>
<path d="M0 0 C2 1 2 1 2 1 Z " fill="#FBFBFB" transform="translate(557,480)"/>
<path d="M0 0 C2 1 2 1 2 1 Z " fill="#FCFCFC" transform="translate(554,479)"/>
<path d="M0 0 C2 1 2 1 2 1 Z " fill="#FCFCFC" transform="translate(133,461)"/>
<path d="M0 0 C2 1 2 1 2 1 Z " fill="#FCFCFC" transform="translate(131,460)"/>
<path d="M0 0 C2 1 2 1 2 1 Z " fill="#FCFCFC" transform="translate(127,458)"/>
<path d="M0 0 C2 1 2 1 2 1 Z " fill="#FCFCFC" transform="translate(125,457)"/>
<path d="M0 0 C2 1 2 1 2 1 Z " fill="#FCFCFC" transform="translate(123,456)"/>
<path d="M0 0 C2 1 2 1 2 1 Z " fill="#FCFCFC" transform="translate(121,455)"/>
<path d="M0 0 C2 1 2 1 2 1 Z " fill="#FDFDFD" transform="translate(119,454)"/>
<path d="M0 0 C2 1 2 1 2 1 Z " fill="#FCFCFC" transform="translate(117,453)"/>
<path d="" fill="#FEFEFE" transform="translate(0,0)"/>
<path d="M0 0 C2 1 2 1 2 1 Z " fill="#FDFDFD" transform="translate(112,450)"/>
<path d="M0 0 C2 1 2 1 2 1 Z " fill="#FDFDFD" transform="translate(109,448)"/>
<path d="M0 0 C2 1 2 1 2 1 Z " fill="#FEFEFE" transform="translate(105,445)"/>
<path d="" fill="#FEFEFE" transform="translate(0,0)"/>
<path d="M0 0 C2 1 2 1 2 1 Z " fill="#FEFEFE" transform="translate(100,441)"/>
<path d="" fill="#FDFDFD" transform="translate(0,0)"/>
<path d="" fill="#FEFEFE" transform="translate(0,0)"/>
<path d="" fill="#FDFDFD" transform="translate(0,0)"/>
<path d="" fill="#FDFDFD" transform="translate(0,0)"/>
<path d="" fill="#FDFDFD" transform="translate(0,0)"/>
<path d="" fill="#FDFDFD" transform="translate(0,0)"/>
<path d="" fill="#FDFDFD" transform="translate(0,0)"/>
<path d="" fill="#FDFDFD" transform="translate(0,0)"/>
<path d="M0 0 C2 1 2 1 2 1 Z " fill="#FCFCFC" transform="translate(109,417)"/>
<path d="M0 0 C2 1 2 1 2 1 Z " fill="#FDFDFD" transform="translate(111,416)"/>
<path d="" fill="#FDFDFD" transform="translate(0,0)"/>
<path d="" fill="#FEFEFE" transform="translate(0,0)"/>
<path d="" fill="#FCFCFC" transform="translate(0,0)"/>
<path d="" fill="#FCFCFC" transform="translate(0,0)"/>
<path d="" fill="#FCFCFC" transform="translate(0,0)"/>
<path d="" fill="#FCFCFC" transform="translate(0,0)"/>
<path d="" fill="#FCFCFC" transform="translate(0,0)"/>
<path d="M0 0 C2 1 2 1 2 1 Z " fill="#FAFAFA" transform="translate(83,399)"/>
<path d="M0 0 C2 1 2 1 2 1 Z " fill="#FCFCFC" transform="translate(81,398)"/>
<path d="M0 0 C2 1 2 1 2 1 Z " fill="#FDFDFD" transform="translate(79,397)"/>
<path d="M0 0 C2 1 2 1 2 1 Z " fill="#FDFDFD" transform="translate(76,395)"/>
<path d="" fill="#FCFCFC" transform="translate(0,0)"/>
<path d="M0 0 C2 1 2 1 2 1 Z " fill="#FEFEFE" transform="translate(72,392)"/>
<path d="" fill="#FDFDFD" transform="translate(0,0)"/>
<path d="" fill="#FDFDFD" transform="translate(0,0)"/>
<path d="" fill="#FCFCFC" transform="translate(0,0)"/>
<path d="" fill="#FDFDFD" transform="translate(0,0)"/>
<path d="M0 0 C2 1 2 1 2 1 Z " fill="#FBFBFB" transform="translate(53,341)"/>
<path d="M0 0 C2 1 2 1 2 1 Z " fill="#FCFCFC" transform="translate(48,339)"/>
<path d="M0 0 C2 1 2 1 2 1 Z " fill="#FCFCFC" transform="translate(46,338)"/>
<path d="M0 0 C2 1 2 1 2 1 Z " fill="#FCFCFC" transform="translate(43,337)"/>
<path d="M0 0 C2 1 2 1 2 1 Z " fill="#FCFCFC" transform="translate(41,336)"/>
<path d="M0 0 C2 1 2 1 2 1 Z " fill="#FCFCFC" transform="translate(39,335)"/>
<path d="M0 0 C2 1 2 1 2 1 Z " fill="#FCFCFC" transform="translate(37,334)"/>
<path d="M0 0 C2 1 2 1 2 1 Z " fill="#FCFCFC" transform="translate(35,333)"/>
<path d="M0 0 C2 1 2 1 2 1 Z " fill="#FCFCFC" transform="translate(33,332)"/>
<path d="M0 0 C2 1 2 1 2 1 Z " fill="#FCFCFC" transform="translate(31,331)"/>
<path d="M0 0 C2 1 2 1 2 1 Z " fill="#FDFDFD" transform="translate(26,328)"/>
<path d="M0 0 C2 1 2 1 2 1 Z " fill="#FCFCFC" transform="translate(24,327)"/>
<path d="" fill="#FEFEFE" transform="translate(0,0)"/>
<path d="M0 0 C2 1 2 1 2 1 Z " fill="#FAFAFA" transform="translate(86,313)"/>
<path d="M0 0 C2 1 2 1 2 1 Z " fill="#FBFBFB" transform="translate(89,312)"/>
<path d="M0 0 C2 1 2 1 2 1 Z " fill="#FBFBFB" transform="translate(91,311)"/>
<path d="M0 0 C2 1 2 1 2 1 Z " fill="#FCFCFC" transform="translate(96,309)"/>
<path d="M0 0 C2 1 2 1 2 1 Z " fill="#FCFCFC" transform="translate(99,307)"/>
<path d="M0 0 C2 1 2 1 2 1 Z " fill="#FCFCFC" transform="translate(101,306)"/>
<path d="M0 0 C2 1 2 1 2 1 Z " fill="#FEFEFE" transform="translate(107,302)"/>
<path d="" fill="#FDFDFD" transform="translate(0,0)"/>
<path d="" fill="#FEFEFE" transform="translate(0,0)"/>
<path d="" fill="#FDFDFD" transform="translate(0,0)"/>
<path d="" fill="#FDFDFD" transform="translate(0,0)"/>
<path d="" fill="#FDFDFD" transform="translate(0,0)"/>
<path d="" fill="#FCFCFC" transform="translate(0,0)"/>
<path d="" fill="#FCFCFC" transform="translate(0,0)"/>
<path d="" fill="#FCFCFC" transform="translate(0,0)"/>
<path d="" fill="#FCFCFC" transform="translate(0,0)"/>
<path d="" fill="#FCFCFC" transform="translate(0,0)"/>
<path d="" fill="#FDFDFD" transform="translate(0,0)"/>
<path d="" fill="#FCFCFC" transform="translate(0,0)"/>
<path d="" fill="#FCFCFC" transform="translate(0,0)"/>
<path d="" fill="#FCFCFC" transform="translate(0,0)"/>
<path d="" fill="#FCFCFC" transform="translate(0,0)"/>
<path d="" fill="#FCFCFC" transform="translate(0,0)"/>
<path d="" fill="#FCFCFC" transform="translate(0,0)"/>
<path d="" fill="#FDFDFD" transform="translate(0,0)"/>
<path d="" fill="#FCFCFC" transform="translate(0,0)"/>
<path d="" fill="#FDFDFD" transform="translate(0,0)"/>
<path d="" fill="#FCFCFC" transform="translate(0,0)"/>
<path d="" fill="#FBFBFB" transform="translate(0,0)"/>
<path d="" fill="#FDFDFD" transform="translate(0,0)"/>
<path d="" fill="#FDFDFD" transform="translate(0,0)"/>
<path d="" fill="#FCFCFC" transform="translate(0,0)"/>
<path d="" fill="#FDFDFD" transform="translate(0,0)"/>
<path d="" fill="#FDFDFD" transform="translate(0,0)"/>
<path d="" fill="#FDFDFD" transform="translate(0,0)"/>
<path d="" fill="#FCFCFC" transform="translate(0,0)"/>
<path d="" fill="#FDFDFD" transform="translate(0,0)"/>
<path d="" fill="#FDFDFD" transform="translate(0,0)"/>
<path d="" fill="#FCFCFC" transform="translate(0,0)"/>
<path d="" fill="#FCFCFC" transform="translate(0,0)"/>
<path d="" fill="#FDFDFD" transform="translate(0,0)"/>
<path d="" fill="#FDFDFD" transform="translate(0,0)"/>
<path d="" fill="#FDFDFD" transform="translate(0,0)"/>
<path d="" fill="#FEFEFE" transform="translate(0,0)"/>
<path d="" fill="#FDFDFD" transform="translate(0,0)"/>
<path d="" fill="#FEFEFE" transform="translate(0,0)"/>
<path d="" fill="#FDFDFD" transform="translate(0,0)"/>
<path d="" fill="#FDFDFD" transform="translate(0,0)"/>
<path d="" fill="#FEFEFE" transform="translate(0,0)"/>
<path d="" fill="#FEFEFE" transform="translate(0,0)"/>
<path d="" fill="#FEFEFE" transform="translate(0,0)"/>
<path d="" fill="#FDFDFD" transform="translate(0,0)"/>
<path d="" fill="#FEFEFE" transform="translate(0,0)"/>
<path d="" fill="#FEFEFE" transform="translate(0,0)"/>
<path d="M0 0 C2 1 2 1 2 1 Z " fill="#FEFEFE" transform="translate(417,34)"/>
<path d="M0 0 C2 1 2 1 2 1 Z " fill="#FDFDFD" transform="translate(413,31)"/>
<path d="M0 0 C2 1 2 1 2 1 Z " fill="#FDFDFD" transform="translate(410,29)"/>
<path d="M0 0 C2 1 2 1 2 1 Z " fill="#FDFDFD" transform="translate(406,26)"/>
<path d="M0 0 C2 1 2 1 2 1 Z " fill="#FDFDFD" transform="translate(404,25)"/>
<path d="M0 0 C2 1 2 1 2 1 Z " fill="#FDFDFD" transform="translate(214,25)"/>
<path d="M0 0 C2 1 2 1 2 1 Z " fill="#FDFDFD" transform="translate(401,23)"/>
<path d="M0 0 C2 1 2 1 2 1 Z " fill="#FDFDFD" transform="translate(218,22)"/>
<path d="M0 0 C2 1 2 1 2 1 Z " fill="#FCFCFC" transform="translate(398,21)"/>
<path d="M0 0 C2 1 2 1 2 1 Z " fill="#FCFCFC" transform="translate(396,20)"/>
<path d="M0 0 C2 1 2 1 2 1 Z " fill="#FCFCFC" transform="translate(394,19)"/>
<path d="M0 0 C2 1 2 1 2 1 Z " fill="#FCFCFC" transform="translate(392,18)"/>
<path d="M0 0 C2 1 2 1 2 1 Z " fill="#FCFCFC" transform="translate(390,17)"/>
<path d="M0 0 C2 1 2 1 2 1 Z " fill="#FCFCFC" transform="translate(225,17)"/>
<path d="M0 0 C2 1 2 1 2 1 Z " fill="#FDFDFD" transform="translate(227,16)"/>
<path d="M0 0 C2 1 2 1 2 1 Z " fill="#FCFCFC" transform="translate(386,15)"/>
<path d="M0 0 C2 1 2 1 2 1 Z " fill="#FCFCFC" transform="translate(384,14)"/>
<path d="M0 0 C2 1 2 1 2 1 Z " fill="#FBFBFB" transform="translate(382,13)"/>
<path d="M0 0 C2 1 2 1 2 1 Z " fill="#FDFDFD" transform="translate(232,13)"/>
<path d="M0 0 C2 1 2 1 2 1 Z " fill="#FBFBFB" transform="translate(380,12)"/>
<path d="M0 0 C2 1 2 1 2 1 Z " fill="#FBFBFB" transform="translate(234,12)"/>
<path d="M0 0 C2 1 2 1 2 1 Z " fill="#FCFCFC" transform="translate(377,11)"/>
<path d="M0 0 C2 1 2 1 2 1 Z " fill="#FBFBFB" transform="translate(236,11)"/>
<path d="M0 0 C2 1 2 1 2 1 Z " fill="#FBFBFB" transform="translate(238,10)"/>
<path d="M0 0 C2 1 2 1 2 1 Z " fill="#FBFBFB" transform="translate(372,9)"/>
<path d="M0 0 C2 1 2 1 2 1 Z " fill="#FCFCFC" transform="translate(240,9)"/>
<path d="M0 0 C2 1 2 1 2 1 Z " fill="#FBFBFB" transform="translate(369,8)"/>
<path d="M0 0 C2 1 2 1 2 1 Z " fill="#FCFCFC" transform="translate(243,8)"/>
<path d="M0 0 C2 1 2 1 2 1 Z " fill="#FBFBFB" transform="translate(245,7)"/>
<path d="M0 0 C2 1 2 1 2 1 Z " fill="#FBFBFB" transform="translate(363,6)"/>
<path d="M0 0 C2 1 2 1 2 1 Z " fill="#FBFBFB" transform="translate(248,6)"/>
<path d="" fill="#FBFBFB" transform="translate(0,0)"/>
<path d="" fill="#FCFCFC" transform="translate(0,0)"/>
<path d="" fill="#FBFBFB" transform="translate(0,0)"/>
<path d="" fill="#FBFBFB" transform="translate(0,0)"/>
<path d="" fill="#FBFBFB" transform="translate(0,0)"/>
<path d="" fill="#FDFDFD" transform="translate(0,0)"/>
<path d="" fill="#FCFCFC" transform="translate(0,0)"/>
<path d="" fill="#FEFEFE" transform="translate(0,0)"/>
<path d="" fill="#FCFCFC" transform="translate(0,0)"/>
<path d="" fill="#FDFDFD" transform="translate(0,0)"/>
<path d="" fill="#FEFEFE" transform="translate(0,0)"/>
<path d="" fill="#FCFCFC" transform="translate(0,0)"/>
<path d="" fill="#FEFEFE" transform="translate(0,0)"/>
<path d="" fill="#FDFDFD" transform="translate(0,0)"/>
<path d="" fill="#FDFDFD" transform="translate(0,0)"/>
<path d="" fill="#FBFBFB" transform="translate(0,0)"/>
<path d="" fill="#FAFAFA" transform="translate(0,0)"/>
<path d="" fill="#FCFCFC" transform="translate(0,0)"/>
<path d="" fill="#FDFDFD" transform="translate(0,0)"/>
<path d="" fill="#FCFCFC" transform="translate(0,0)"/>
<path d="" fill="#FCFCFC" transform="translate(0,0)"/>
<path d="" fill="#FDFDFD" transform="translate(0,0)"/>
<path d="" fill="#FCFCFC" transform="translate(0,0)"/>
<path d="" fill="#FCFCFC" transform="translate(0,0)"/>
<path d="" fill="#FEFEFE" transform="translate(0,0)"/>
<path d="" fill="#FCFCFC" transform="translate(0,0)"/>
<path d="" fill="#FAFAFA" transform="translate(0,0)"/>
<path d="" fill="#FCFCFC" transform="translate(0,0)"/>
<path d="" fill="#FDFDFD" transform="translate(0,0)"/>
<path d="" fill="#FCFCFC" transform="translate(0,0)"/>
<path d="" fill="#FCFCFC" transform="translate(0,0)"/>
<path d="" fill="#FCFCFC" transform="translate(0,0)"/>
<path d="" fill="#FCFCFC" transform="translate(0,0)"/>
<path d="" fill="#FDFDFD" transform="translate(0,0)"/>
<path d="" fill="#FCFCFC" transform="translate(0,0)"/>
<path d="" fill="#FCFCFC" transform="translate(0,0)"/>
<path d="" fill="#FCFCFC" transform="translate(0,0)"/>
<path d="" fill="#FAFAFA" transform="translate(0,0)"/>
<path d="" fill="#FCFCFC" transform="translate(0,0)"/>
<path d="" fill="#FCFCFC" transform="translate(0,0)"/>
<path d="" fill="#FAFAFA" transform="translate(0,0)"/>
<path d="" fill="#FAFAFA" transform="translate(0,0)"/>
<path d="" fill="#FAFAFA" transform="translate(0,0)"/>
<path d="" fill="#FAFAFA" transform="translate(0,0)"/>
<path d="" fill="#FAFAFA" transform="translate(0,0)"/>
<path d="" fill="#FAFAFA" transform="translate(0,0)"/>
<path d="" fill="#FAFAFA" transform="translate(0,0)"/>
<path d="" fill="#FAFAFA" transform="translate(0,0)"/>
<path d="" fill="#FCFCFC" transform="translate(0,0)"/>
<path d="" fill="#FCFCFC" transform="translate(0,0)"/>
<path d="" fill="#FDFDFD" transform="translate(0,0)"/>
<path d="" fill="#FBFBFB" transform="translate(0,0)"/>
<path d="" fill="#FBFBFB" transform="translate(0,0)"/>
<path d="" fill="#FBFBFB" transform="translate(0,0)"/>
<path d="" fill="#FCFCFC" transform="translate(0,0)"/>
<path d="" fill="#FBFBFB" transform="translate(0,0)"/>
<path d="" fill="#FCFCFC" transform="translate(0,0)"/>
<path d="" fill="#FCFCFC" transform="translate(0,0)"/>
<path d="" fill="#FBFBFB" transform="translate(0,0)"/>
<path d="" fill="#FFFFFF" transform="translate(0,0)"/>
<path d="" fill="#FCFCFC" transform="translate(0,0)"/>
<path d="" fill="#FBFBFB" transform="translate(0,0)"/>
<path d="" fill="#FFFFFF" transform="translate(0,0)"/>
<path d="" fill="#FFFFFF" transform="translate(0,0)"/>
<path d="" fill="#FCFCFC" transform="translate(0,0)"/>
<path d="" fill="#FCFCFC" transform="translate(0,0)"/>
<path d="" fill="#FBFBFB" transform="translate(0,0)"/>
<path d="" fill="#FBFBFB" transform="translate(0,0)"/>
<path d="" fill="#FFFFFF" transform="translate(0,0)"/>
<path d="" fill="#FFFFFF" transform="translate(0,0)"/>
<path d="" fill="#FCFCFC" transform="translate(0,0)"/>
<path d="" fill="#FBFBFB" transform="translate(0,0)"/>
<path d="" fill="#FCFCFC" transform="translate(0,0)"/>
<path d="" fill="#FFFFFF" transform="translate(0,0)"/>
<path d="" fill="#FBFBFB" transform="translate(0,0)"/>
<path d="" fill="#FDFDFD" transform="translate(0,0)"/>
<path d="" fill="#FDFDFD" transform="translate(0,0)"/>
<path d="" fill="#FCFCFC" transform="translate(0,0)"/>
<path d="" fill="#FCFCFC" transform="translate(0,0)"/>
<path d="" fill="#FBFBFB" transform="translate(0,0)"/>
<path d="" fill="#FCFCFC" transform="translate(0,0)"/>
<path d="" fill="#FFFFFF" transform="translate(0,0)"/>
<path d="" fill="#FDFDFD" transform="translate(0,0)"/>
<path d="" fill="#FFFFFF" transform="translate(0,0)"/>
<path d="" fill="#FBFBFB" transform="translate(0,0)"/>
<path d="" fill="#FFFFFF" transform="translate(0,0)"/>
<path d="" fill="#FFFFFF" transform="translate(0,0)"/>
<path d="" fill="#FDFDFD" transform="translate(0,0)"/>
<path d="" fill="#FFFFFF" transform="translate(0,0)"/>
<path d="" fill="#FBFBFB" transform="translate(0,0)"/>
<path d="" fill="#FFFFFF" transform="translate(0,0)"/>
<path d="" fill="#FCFCFC" transform="translate(0,0)"/>
<path d="" fill="#FFFFFF" transform="translate(0,0)"/>
<path d="" fill="#FDFDFD" transform="translate(0,0)"/>
<path d="" fill="#FFFFFF" transform="translate(0,0)"/>
<path d="" fill="#FBFBFB" transform="translate(0,0)"/>
<path d="" fill="#FEFEFE" transform="translate(0,0)"/>
<path d="" fill="#FDFDFD" transform="translate(0,0)"/>
<path d="" fill="#FBFBFB" transform="translate(0,0)"/>
<path d="" fill="#FEFEFE" transform="translate(0,0)"/>
<path d="" fill="#FDFDFD" transform="translate(0,0)"/>
<path d="" fill="#FCFCFC" transform="translate(0,0)"/>
<path d="" fill="#FCFCFC" transform="translate(0,0)"/>
<path d="" fill="#FBFBFB" transform="translate(0,0)"/>
<path d="" fill="#FBFBFB" transform="translate(0,0)"/>
<path d="" fill="#FCFCFC" transform="translate(0,0)"/>
<path d="" fill="#FDFDFD" transform="translate(0,0)"/>
<path d="" fill="#FDFDFD" transform="translate(0,0)"/>
<path d="" fill="#FCFCFC" transform="translate(0,0)"/>
<path d="" fill="#FCFCFC" transform="translate(0,0)"/>
<path d="" fill="#FBFBFB" transform="translate(0,0)"/>
<path d="" fill="#FCFCFC" transform="translate(0,0)"/>
<path d="" fill="#FBFBFB" transform="translate(0,0)"/>
<path d="" fill="#FAFAFA" transform="translate(0,0)"/>
<path d="" fill="#FCFCFC" transform="translate(0,0)"/>
<path d="" fill="#FDFDFD" transform="translate(0,0)"/>
<path d="" fill="#FCFCFC" transform="translate(0,0)"/>
<path d="" fill="#FBFBFB" transform="translate(0,0)"/>
<path d="" fill="#FBFBFB" transform="translate(0,0)"/>
<path d="" fill="#FBFBFB" transform="translate(0,0)"/>
<path d="" fill="#FFFFFF" transform="translate(0,0)"/>
<path d="" fill="#FFFFFF" transform="translate(0,0)"/>
<path d="" fill="#FDFDFD" transform="translate(0,0)"/>
<path d="" fill="#FCFCFC" transform="translate(0,0)"/>
<path d="" fill="#FDFDFD" transform="translate(0,0)"/>
<path d="" fill="#FCFCFC" transform="translate(0,0)"/>
<path d="" fill="#FBFBFB" transform="translate(0,0)"/>
<path d="" fill="#FFFFFF" transform="translate(0,0)"/>
<path d="" fill="#FCFCFC" transform="translate(0,0)"/>
<path d="" fill="#FCFCFC" transform="translate(0,0)"/>
<path d="" fill="#FEFEFE" transform="translate(0,0)"/>
<path d="" fill="#FEFEFE" transform="translate(0,0)"/>
<path d="" fill="#FBFBFB" transform="translate(0,0)"/>
<path d="" fill="#FBFBFB" transform="translate(0,0)"/>
<path d="" fill="#FCFCFC" transform="translate(0,0)"/>
<path d="" fill="#FCFCFC" transform="translate(0,0)"/>
<path d="" fill="#FDFDFD" transform="translate(0,0)"/>
<path d="" fill="#FEFEFE" transform="translate(0,0)"/>
<path d="" fill="#FCFCFC" transform="translate(0,0)"/>
<path d="" fill="#FCFCFC" transform="translate(0,0)"/>
<path d="" fill="#FDFDFD" transform="translate(0,0)"/>
<path d="" fill="#FCFCFC" transform="translate(0,0)"/>
<path d="" fill="#FBFBFB" transform="translate(0,0)"/>
<path d="" fill="#FCFCFC" transform="translate(0,0)"/>
<path d="" fill="#FEFEFE" transform="translate(0,0)"/>
<path d="" fill="#FFFFFF" transform="translate(0,0)"/>
<path d="" fill="#FBFBFB" transform="translate(0,0)"/>
<path d="" fill="#FFFFFF" transform="translate(0,0)"/>
<path d="" fill="#FFFFFF" transform="translate(0,0)"/>
<path d="" fill="#FEFEFE" transform="translate(0,0)"/>
<path d="" fill="#FBFBFB" transform="translate(0,0)"/>
<path d="" fill="#FDFDFD" transform="translate(0,0)"/>
<path d="" fill="#FFFFFF" transform="translate(0,0)"/>
<path d="" fill="#FDFDFD" transform="translate(0,0)"/>
<path d="" fill="#FCFCFC" transform="translate(0,0)"/>
<path d="" fill="#FEFEFE" transform="translate(0,0)"/>
<path d="" fill="#FFFFFF" transform="translate(0,0)"/>
<path d="" fill="#FBFBFB" transform="translate(0,0)"/>
<path d="" fill="#FBFBFB" transform="translate(0,0)"/>
<path d="" fill="#FCFCFC" transform="translate(0,0)"/>
<path d="" fill="#FFFFFF" transform="translate(0,0)"/>
<path d="" fill="#FCFCFC" transform="translate(0,0)"/>
<path d="" fill="#FCFCFC" transform="translate(0,0)"/>
<path d="" fill="#FCFCFC" transform="translate(0,0)"/>
<path d="" fill="#FCFCFC" transform="translate(0,0)"/>
<path d="" fill="#FCFCFC" transform="translate(0,0)"/>
<path d="" fill="#FDFDFD" transform="translate(0,0)"/>
<path d="" fill="#FFFFFF" transform="translate(0,0)"/>
<path d="" fill="#FCFCFC" transform="translate(0,0)"/>
<path d="" fill="#FCFCFC" transform="translate(0,0)"/>
<path d="" fill="#FBFBFB" transform="translate(0,0)"/>
<path d="" fill="#FCFCFC" transform="translate(0,0)"/>
<path d="" fill="#FCFCFC" transform="translate(0,0)"/>
<path d="" fill="#FFFFFF" transform="translate(0,0)"/>
<path d="" fill="#FBFBFB" transform="translate(0,0)"/>
<path d="" fill="#FBFBFB" transform="translate(0,0)"/>
<path d="" fill="#FBFBFB" transform="translate(0,0)"/>
<path d="" fill="#FBFBFB" transform="translate(0,0)"/>
<path d="" fill="#FBFBFB" transform="translate(0,0)"/>
<path d="" fill="#FEFEFE" transform="translate(0,0)"/>
<path d="" fill="#FBFBFB" transform="translate(0,0)"/>
<path d="" fill="#FCFCFC" transform="translate(0,0)"/>
<path d="" fill="#FDFDFD" transform="translate(0,0)"/>
<path d="" fill="#FBFBFB" transform="translate(0,0)"/>
<path d="" fill="#FCFCFC" transform="translate(0,0)"/>
<path d="" fill="#FCFCFC" transform="translate(0,0)"/>
<path d="" fill="#FCFCFC" transform="translate(0,0)"/>
<path d="" fill="#FBFBFB" transform="translate(0,0)"/>
<path d="" fill="#FCFCFC" transform="translate(0,0)"/>
<path d="" fill="#FCFCFC" transform="translate(0,0)"/>
<path d="" fill="#FFFFFF" transform="translate(0,0)"/>
<path d="" fill="#FCFCFC" transform="translate(0,0)"/>
<path d="" fill="#FEFEFE" transform="translate(0,0)"/>
<path d="" fill="#FDFDFD" transform="translate(0,0)"/>
<path d="" fill="#FBFBFB" transform="translate(0,0)"/>
<path d="" fill="#FCFCFC" transform="translate(0,0)"/>
<path d="" fill="#FEFEFE" transform="translate(0,0)"/>
<path d="" fill="#FBFBFB" transform="translate(0,0)"/>
<path d="" fill="#FBFBFB" transform="translate(0,0)"/>
<path d="" fill="#FDFDFD" transform="translate(0,0)"/>
<path d="" fill="#FBFBFB" transform="translate(0,0)"/>
<path d="" fill="#FCFCFC" transform="translate(0,0)"/>
<path d="" fill="#FBFBFB" transform="translate(0,0)"/>
<path d="" fill="#FDFDFD" transform="translate(0,0)"/>
<path d="" fill="#FBFBFB" transform="translate(0,0)"/>
<path d="" fill="#FCFCFC" transform="translate(0,0)"/>
<path d="" fill="#FFFFFF" transform="translate(0,0)"/>
<path d="" fill="#FBFBFB" transform="translate(0,0)"/>
<path d="" fill="#FCFCFC" transform="translate(0,0)"/>
<path d="" fill="#FCFCFC" transform="translate(0,0)"/>
<path d="" fill="#FEFEFE" transform="translate(0,0)"/>
<path d="" fill="#FCFCFC" transform="translate(0,0)"/>
<path d="" fill="#FFFFFF" transform="translate(0,0)"/>
<path d="" fill="#FCFCFC" transform="translate(0,0)"/>
<path d="" fill="#FCFCFC" transform="translate(0,0)"/>
<path d="" fill="#FBFBFB" transform="translate(0,0)"/>
<path d="" fill="#FFFFFF" transform="translate(0,0)"/>
<path d="" fill="#FCFCFC" transform="translate(0,0)"/>
<path d="" fill="#FBFBFB" transform="translate(0,0)"/>
<path d="" fill="#FCFCFC" transform="translate(0,0)"/>
<path d="" fill="#FDFDFD" transform="translate(0,0)"/>
<path d="" fill="#FFFFFF" transform="translate(0,0)"/>
<path d="" fill="#FFFFFF" transform="translate(0,0)"/>
<path d="" fill="#FBFBFB" transform="translate(0,0)"/>
<path d="" fill="#FDFDFD" transform="translate(0,0)"/>
<path d="" fill="#FBFBFB" transform="translate(0,0)"/>
<path d="" fill="#FDFDFD" transform="translate(0,0)"/>
<path d="" fill="#FCFCFC" transform="translate(0,0)"/>
<path d="" fill="#FDFDFD" transform="translate(0,0)"/>
<path d="" fill="#FFFFFF" transform="translate(0,0)"/>
<path d="" fill="#FAFAFA" transform="translate(0,0)"/>
<path d="" fill="#FFFFFF" transform="translate(0,0)"/>
<path d="" fill="#FCFCFC" transform="translate(0,0)"/>
<path d="" fill="#FFFFFF" transform="translate(0,0)"/>
<path d="" fill="#FBFBFB" transform="translate(0,0)"/>
<path d="" fill="#FFFFFF" transform="translate(0,0)"/>
<path d="" fill="#FFFFFF" transform="translate(0,0)"/>
<path d="" fill="#FFFFFF" transform="translate(0,0)"/>
<path d="" fill="#FFFFFF" transform="translate(0,0)"/>
<path d="" fill="#FDFDFD" transform="translate(0,0)"/>
<path d="" fill="#FFFFFF" transform="translate(0,0)"/>
<path d="" fill="#FBFBFB" transform="translate(0,0)"/>
<path d="" fill="#FFFFFF" transform="translate(0,0)"/>
<path d="" fill="#FCFCFC" transform="translate(0,0)"/>
<path d="" fill="#FFFFFF" transform="translate(0,0)"/>
<path d="" fill="#FFFFFF" transform="translate(0,0)"/>
<path d="" fill="#FFFFFF" transform="translate(0,0)"/>
<path d="" fill="#FFFFFF" transform="translate(0,0)"/>
<path d="" fill="#FEFEFE" transform="translate(0,0)"/>
<path d="" fill="#FAFAFA" transform="translate(0,0)"/>
<path d="" fill="#FDFDFD" transform="translate(0,0)"/>
<path d="" fill="#FBFBFB" transform="translate(0,0)"/>
<path d="" fill="#FCFCFC" transform="translate(0,0)"/>
<path d="" fill="#FCFCFC" transform="translate(0,0)"/>
<path d="" fill="#FBFBFB" transform="translate(0,0)"/>
<path d="" fill="#FDFDFD" transform="translate(0,0)"/>
<path d="" fill="#FDFDFD" transform="translate(0,0)"/>
<path d="" fill="#FCFCFC" transform="translate(0,0)"/>
<path d="" fill="#FFFFFF" transform="translate(0,0)"/>
<path d="" fill="#FCFCFC" transform="translate(0,0)"/>
<path d="" fill="#FCFCFC" transform="translate(0,0)"/>
<path d="" fill="#FCFCFC" transform="translate(0,0)"/>
<path d="" fill="#FBFBFB" transform="translate(0,0)"/>
<path d="" fill="#FCFCFC" transform="translate(0,0)"/>
<path d="" fill="#FCFCFC" transform="translate(0,0)"/>
<path d="" fill="#FCFCFC" transform="translate(0,0)"/>
<path d="" fill="#FCFCFC" transform="translate(0,0)"/>
<path d="" fill="#FEFEFE" transform="translate(0,0)"/>
<path d="" fill="#FCFCFC" transform="translate(0,0)"/>
<path d="" fill="#FCFCFC" transform="translate(0,0)"/>
<path d="" fill="#FDFDFD" transform="translate(0,0)"/>
<path d="" fill="#FBFBFB" transform="translate(0,0)"/>
<path d="" fill="#FDFDFD" transform="translate(0,0)"/>
<path d="" fill="#FCFCFC" transform="translate(0,0)"/>
<path d="" fill="#FFFFFF" transform="translate(0,0)"/>
<path d="" fill="#FEFEFE" transform="translate(0,0)"/>
<path d="" fill="#FEFEFE" transform="translate(0,0)"/>
<path d="" fill="#FBFBFB" transform="translate(0,0)"/>
<path d="" fill="#FDFDFD" transform="translate(0,0)"/>
<path d="" fill="#FCFCFC" transform="translate(0,0)"/>
<path d="" fill="#FCFCFC" transform="translate(0,0)"/>
<path d="" fill="#FDFDFD" transform="translate(0,0)"/>
<path d="" fill="#FBFBFB" transform="translate(0,0)"/>
<path d="" fill="#FBFBFB" transform="translate(0,0)"/>
<path d="" fill="#FEFEFE" transform="translate(0,0)"/>
<path d="" fill="#FBFBFB" transform="translate(0,0)"/>
<path d="" fill="#FEFEFE" transform="translate(0,0)"/>
<path d="" fill="#FBFBFB" transform="translate(0,0)"/>
<path d="" fill="#FAFAFA" transform="translate(0,0)"/>
<path d="" fill="#FBFBFB" transform="translate(0,0)"/>
<path d="" fill="#FBFBFB" transform="translate(0,0)"/>
</svg>
