<?xml version="1.0" standalone="no"?>
<!DOCTYPE svg PUBLIC "-//W3C//DTD SVG 20010904//EN"
 "http://www.w3.org/TR/2001/REC-SVG-20010904/DTD/svg10.dtd">
<svg version="1.0" xmlns="http://www.w3.org/2000/svg"
 width="1280.000000pt" height="1216.000000pt" viewBox="0 0 1280.000000 1216.000000"
 preserveAspectRatio="xMidYMid meet">
<rect width="100%" height="100%" fill="rgb(12, 69, 125)" />
<g transform="translate(0.000000,1216.000000) scale(0.100000,-0.100000)"
fill="#000000" stroke="none">
<path d="M6255 12149 c-547 -15 -995 -118 -1390 -317 -231 -116 -389 -228
-566 -400 -288 -278 -494 -624 -622 -1042 -106 -347 -148 -648 -148 -1070 0
-467 35 -635 177 -852 l48 -73 13 65 c6 36 12 77 13 92 0 15 4 29 8 32 4 3 1
-42 -7 -100 -14 -96 -14 -106 2 -121 21 -21 20 -23 42 137 70 508 250 983 523
1379 152 221 375 465 584 637 187 155 450 329 680 452 l78 41 339 -403 c187
-221 368 -429 403 -460 161 -146 516 -318 808 -390 225 -56 441 -71 596 -41
92 17 201 67 263 119 92 77 144 85 213 33 83 -63 167 -215 266 -482 23 -60 71
-191 108 -290 37 -99 85 -216 108 -260 22 -44 44 -96 47 -115 l6 -35 2 32 c0
20 -12 56 -33 95 -30 54 -106 236 -106 253 0 3 8 5 18 5 14 0 28 -23 56 -94
20 -51 52 -120 72 -151 l34 -58 -7 -143 c-5 -79 -5 -144 -1 -144 12 0 83 147
116 241 69 194 92 344 99 640 8 325 -23 587 -106 889 -100 363 -271 708 -488
983 -72 92 -297 317 -389 390 -359 283 -804 458 -1299 511 -185 20 -296 23
-560 15z m2455 -2974 c0 -5 -5 -3 -10 5 -5 8 -10 20 -10 25 0 6 5 3 10 -5 5
-8 10 -19 10 -25z m19 -60 c0 -5 -4 -3 -9 5 -5 8 -9 22 -9 30 0 16 17 -16 18
-35z m-29 0 c0 -5 -5 -3 -10 5 -5 8 -10 20 -10 25 0 6 5 3 10 -5 5 -8 10 -19
10 -25z m-4873 -357 c-3 -8 -6 -5 -6 6 -1 11 2 17 5 13 3 -3 4 -12 1 -19z
m-30 -150 c-3 -8 -6 -5 -6 6 -1 11 2 17 5 13 3 -3 4 -12 1 -19z m20 -70 c-3
-8 -6 -5 -6 6 -1 11 2 17 5 13 3 -3 4 -12 1 -19z m-10 -50 c-3 -8 -6 -5 -6 6
-1 11 2 17 5 13 3 -3 4 -12 1 -19z m-11 -116 c-11 -10 -14 3 -8 33 l7 30 3
-28 c2 -16 1 -31 -2 -35z"/>
<path d="M8833 8615 c0 -38 2 -53 4 -32 2 20 2 52 0 70 -2 17 -4 1 -4 -38z"/>
<path d="M8823 8465 c0 -38 2 -53 4 -32 2 20 2 52 0 70 -2 17 -4 1 -4 -38z"/>
<path d="M4090 4080 c-146 -32 -795 -171 -1443 -310 l-1178 -252 -79 -44
c-470 -265 -802 -783 -1059 -1654 -22 -74 -88 -313 -146 -530 -59 -217 -124
-449 -146 -516 -21 -66 -39 -127 -39 -136 0 -16 292 -307 388 -386 98 -80 206
-150 311 -201 l96 -46 5590 0 5590 0 81 33 c144 58 253 131 501 340 73 61 158
130 188 153 34 26 55 49 55 61 0 11 -31 97 -69 192 -38 94 -137 353 -221 576
-83 223 -187 494 -231 604 -362 902 -699 1388 -1102 1584 -73 36 -113 47 -347
91 -1463 278 -2422 461 -2452 466 l-38 7 0 -82 c0 -320 -271 -654 -733 -904
-49 -26 -95 -45 -103 -42 -8 3 -13 2 -10 -3 3 -4 -7 -14 -22 -21 -63 -29 -225
-91 -228 -87 -2 2 38 20 89 40 110 45 138 61 87 53 -25 -4 -3 11 75 50 158 79
154 87 -5 11 -547 -261 -1182 -325 -1756 -176 -215 55 -434 151 -614 269 -52
34 -88 55 -80 47 13 -12 111 -80 166 -114 15 -9 12 -10 -18 -3 -21 4 -38 6
-38 4 0 -1 29 -19 65 -39 36 -20 65 -39 65 -42 0 -3 -33 13 -72 35 -40 22 -73
44 -73 50 0 6 -4 14 -9 19 -5 5 -6 3 -2 -4 17 -29 -18 -9 -151 89 -227 166
-467 443 -608 700 l-36 67 25 50 c15 28 26 53 26 56 0 8 -11 6 -290 -55z
m3275 -1030 c-3 -5 -12 -10 -18 -10 -7 0 -6 4 3 10 19 12 23 12 15 0z m-1985
-20 c19 -11 31 -19 25 -19 -5 0 -26 8 -45 19 -19 11 -30 19 -25 19 6 0 26 -8
45 -19z m1835 -70 c-27 -12 -43 -12 -25 0 8 5 22 9 30 9 10 0 8 -3 -5 -9z
m-48 -16 c-3 -3 -12 -4 -19 -1 -8 3 -5 6 6 6 11 1 17 -2 13 -5z"/>
<path d="M4955 3330 c10 -11 20 -20 23 -20 3 0 -3 9 -13 20 -10 11 -20 20 -23
20 -3 0 3 -9 13 -20z"/>
<path d="M4990 3306 c0 -2 8 -10 18 -17 15 -13 16 -12 3 4 -13 16 -21 21 -21
13z"/>
</g>
</svg>
